<?xml version="1.0" encoding="utf-8"?>
<!-- Generator: Adobe Illustrator 15.1.0, SVG Export Plug-In . SVG Version: 6.00 Build 0)  -->
<!DOCTYPE svg PUBLIC "-//W3C//DTD SVG 1.1//EN" "http://www.w3.org/Graphics/SVG/1.1/DTD/svg11.dtd" [
	<!ENTITY ns_extend "http://ns.adobe.com/Extensibility/1.0/">
	<!ENTITY ns_ai "http://ns.adobe.com/AdobeIllustrator/10.0/">
	<!ENTITY ns_graphs "http://ns.adobe.com/Graphs/1.0/">
	<!ENTITY ns_vars "http://ns.adobe.com/Variables/1.0/">
	<!ENTITY ns_imrep "http://ns.adobe.com/ImageReplacement/1.0/">
	<!ENTITY ns_sfw "http://ns.adobe.com/SaveForWeb/1.0/">
	<!ENTITY ns_custom "http://ns.adobe.com/GenericCustomNamespace/1.0/">
	<!ENTITY ns_adobe_xpath "http://ns.adobe.com/XPath/1.0/">
]>
<svg version="1.1" id="Layer_1" xmlns:x="&ns_extend;" xmlns:i="&ns_ai;" xmlns:graph="&ns_graphs;"
	 xmlns="http://www.w3.org/2000/svg" xmlns:xlink="http://www.w3.org/1999/xlink" x="0px" y="0px" width="1114px" height="770px"
	 viewBox="0 -6.75 1114 770" enable-background="new 0 -6.75 1114 770" xml:space="preserve">
<metadata><?xpacket begin="﻿" id="W5M0MpCehiHzreSzNTczkc9d"?>
<x:xmpmeta xmlns:x="adobe:ns:meta/" x:xmptk="Adobe XMP Core 5.0-c060 61.134777, 2010/02/12-17:32:00        ">
   <rdf:RDF xmlns:rdf="http://www.w3.org/1999/02/22-rdf-syntax-ns#">
      <rdf:Description rdf:about=""
            xmlns:dc="http://purl.org/dc/elements/1.1/">
         <dc:format>image/svg+xml</dc:format>
         <dc:title>
            <rdf:Alt>
               <rdf:li xml:lang="x-default">Print</rdf:li>
            </rdf:Alt>
         </dc:title>
      </rdf:Description>
      <rdf:Description rdf:about=""
            xmlns:xmp="http://ns.adobe.com/xap/1.0/"
            xmlns:xmpGImg="http://ns.adobe.com/xap/1.0/g/img/">
         <xmp:MetadataDate>2018-01-15T18:07:15+06:00</xmp:MetadataDate>
         <xmp:ModifyDate>2018-01-15T18:07:15+06:00</xmp:ModifyDate>
         <xmp:CreateDate>2018-01-15T18:07:14+06:00</xmp:CreateDate>
         <xmp:CreatorTool>Adobe Illustrator CS5.1</xmp:CreatorTool>
         <xmp:Thumbnails>
            <rdf:Alt>
               <rdf:li rdf:parseType="Resource">
                  <xmpGImg:width>256</xmpGImg:width>
                  <xmpGImg:height>176</xmpGImg:height>
                  <xmpGImg:format>JPEG</xmpGImg:format>
                  <xmpGImg:image>/9j/4AAQSkZJRgABAgEAhgCGAAD/7QAsUGhvdG9zaG9wIDMuMAA4QklNA+0AAAAAABAAhgAAAAEA&#xA;AQCGAAAAAQAB/+4ADkFkb2JlAGTAAAAAAf/bAIQABgQEBAUEBgUFBgkGBQYJCwgGBggLDAoKCwoK&#xA;DBAMDAwMDAwQDA4PEA8ODBMTFBQTExwbGxscHx8fHx8fHx8fHwEHBwcNDA0YEBAYGhURFRofHx8f&#xA;Hx8fHx8fHx8fHx8fHx8fHx8fHx8fHx8fHx8fHx8fHx8fHx8fHx8fHx8fHx8f/8AAEQgAsAEAAwER&#xA;AAIRAQMRAf/EAaIAAAAHAQEBAQEAAAAAAAAAAAQFAwIGAQAHCAkKCwEAAgIDAQEBAQEAAAAAAAAA&#xA;AQACAwQFBgcICQoLEAACAQMDAgQCBgcDBAIGAnMBAgMRBAAFIRIxQVEGE2EicYEUMpGhBxWxQiPB&#xA;UtHhMxZi8CRygvElQzRTkqKyY3PCNUQnk6OzNhdUZHTD0uIIJoMJChgZhJRFRqS0VtNVKBry4/PE&#xA;1OT0ZXWFlaW1xdXl9WZ2hpamtsbW5vY3R1dnd4eXp7fH1+f3OEhYaHiImKi4yNjo+Ck5SVlpeYmZ&#xA;qbnJ2en5KjpKWmp6ipqqusra6voRAAICAQIDBQUEBQYECAMDbQEAAhEDBCESMUEFURNhIgZxgZEy&#xA;obHwFMHR4SNCFVJicvEzJDRDghaSUyWiY7LCB3PSNeJEgxdUkwgJChgZJjZFGidkdFU38qOzwygp&#xA;0+PzhJSktMTU5PRldYWVpbXF1eX1RlZmdoaWprbG1ub2R1dnd4eXp7fH1+f3OEhYaHiImKi4yNjo&#xA;+DlJWWl5iZmpucnZ6fkqOkpaanqKmqq6ytrq+v/aAAwDAQACEQMRAD8A9KK7r9liPkcsalRbqcft&#xA;V+e+Ck2VVL5v21B9xtg4U8SIjnik+yd/A9cBDIFUwJdirsVdirsVdirsVdirsVdirsVdirsVdirs&#xA;VdirsVdirsVdirsVdirsVdirsVdirsVdiqU5Y1OxV2KuxVGW10SQkh3P2WyJDMFFZFk7FXYq7FXY&#xA;q7FXYq7FXYq7FXYq7FXYq7FXYq7FXYq7FXYq7FXYq7FXYq7FXYq7FXYqlOWNTsVdirsVcDTfFUzh&#xA;k9SNW8evzyBbAV+BLsVdirsVdirsVdirsVdirsVdirsVdirsVdirsVdirsVdirsVdirsVdirsVdi&#xA;rsVSnLGp2KuxV2KuxVFWMlGMZ77j55GQZRKMyLN2KuxV2KuxV2KuxV2KuxVD3c0kZUIaV75IBjIq&#xA;SX0g+0A34HDwo4ldLuFup4n3yNMuJWBBFQajxGBLsVdirsVdirsVdirsVdirsVdirsVdirsVSnLG&#xA;p2KuxV2KuxVtGKsGHUGuKporBlDDoRXK21vFXYq7FXYq7FXYq7FXYqh75axhv5T+vJRYyQOSYOxV&#xA;tXdTVSQfbFUXb3RYlZOtKg/LIkMxJWS4ifYNv4HbBSbVMCXYq7FXYq7FXYq7FXYq7FXYq7FUpyxq&#xA;dirsVdirsVdiqMsZKqYz23HyyMgziUVkWTsVdirsVdirsVdirsVWTJziZfEbYQgpZk2t2KuxVfCa&#xA;Sr7mh+nbEpDRFDTAqrHcSp3qPA40kFFJcxMqkkKW2AJ75GmVquBLsVdirsVdirsVdirsVdiqU5Y1&#xA;OxV2KuxV2KuxVfFIY5A3h1+WJSCmYIIBHQ9MrbHYq7FXYq7FXYq7FXYq7FUsmThKy+B2ywNZWYod&#xA;irgaGuKqkv8AeN4HcfTvgDIrcULJhWMHwP6x/ZhUt297LFQH408D2+WAhQU0jlSQVU12Bp33yFNl&#xA;rsVdirsVdirsVdirsVSnLGp2KuxV2KuxV2KuxVHWUnKPgeq9PlkZBnEojIsnYq7FXYq7FXYq7FXY&#xA;qhrq2Z25p16EZIFiQhxazn9j8RhsMeEt/VJu9B8yMbXhd9Vk8V+/G14VSW2eikEHYA706fPACyIU&#xA;vQl/lJ+W/wCrDaKWSRv6T1U/DQ9Pen8cUUhcKERG7KFZTQ0/VtiqY283qpU/aGxyBDYDargS7FXY&#xA;q7FXYq7FUpyxqdirsVdirsVdirsVV7IH1qjoAa4JMo80fkGbsVdiriQOuKqbXEK9XH0b/qw0iwpt&#xA;fRDoCfww8KOJTa/b9lAPnvjwo4lhvJ69QPow8K8RVluWeB2Gzr/HvgpNoUsx6knCxaxV2Kr2YmEC&#xA;uyt+sf2YhSpYUK9rKwlCk1VtiDgIZAoqS0t36oAfEbfqyNsqQlzFDDwQMRseu/f2yQLEhWsK0fw2&#xA;oe2CSYqz3CJKsbbFhse3ywUm1TAl2KuxV2KuxVKcsanYq7FXYq7riqotvM3RD9O368bTRVksXP22&#xA;AHgN8jxJ4UVHEka0UfM4CWQC7AlZNMsScjuewwgIJpBPdzN+1xHgMlTDiKkWZupJ+eFDWKuxV2Ku&#xA;xVVtiPU4no4K4CkLCCCQeoxV2KuxVcu6OPao+g4qp4ULkbi6t4EHFQmmVtqB1Rdo28KjJRYyQ1rL&#xA;IhYKaVFT9GSIYgql0xmRW/bXYjxBwBJRNnc81VH+1TY+NMBCQUVkWTsVdirsVSkAnpljUqpbTN0U&#xA;geJ2wWmiqrYN+01PYYOJPCqi0gQVbendjgsp4Q013aRbAj5KK40U2FB9U/32n0t/QYeFjxId725f&#xA;9viPBdsNIsqfrTf78b7zhpFoi31CRWAlPJD37jAYshJE3ykorjoOv04Ipkg8kwdirsVdirsVdira&#xA;khgR1BqMVVbgD1OQ6OAw+nAGRU8UOxVdF/eAfzbfftiUhaI5C3EKajqKYbY0qrZzHrRfn/Zg4mXC&#xA;iZLlIzwIJI65GmVpbrurW9rpslzJGzCMrRVIBJZgvf55ZixmUqasuQRjaT6L5n02/vBbBZIZXVvT&#xA;5gFSVFaVB8B4Zdk08oi2jFqYyNJ6VJUkUIG5plDkrPUPNR0NKBvpxVMLacSLxY/GOo8ffIEMwVbA&#xA;l2KuxVTZ7eEblU9u+FGwUJNThH2FLH7hh4UcSGk1G4b7NEHt1/HDwo4kO8juauxY+5rhYrcVdirs&#xA;VdirsVTOykE1uYm6qKfR2yJZjcIV1KsVPUbZJg1irsVdirsVdirsVVj8Vup7oeJ+R3GDqy6KeKFR&#xA;YHI5N8C+LY2mlyvDGwKguR3O33DAqNVgyhh0IrkWbeKoK8WktfEZIMCk/mKH1tDvU8Iy/wDyLIf/&#xA;AI1y7CamGnOLgXn+hymLWLJwafvkUn2Y8T+BzZZRcS6rCamPe9E1YE2EtNiKHb2YHNdh+oOz1A9B&#xA;SCTzPNZNbpcJ6sLFuUg/vBSlOuxpmTLTiXLZxMeqMdjuyq1dZ19a1kEnpnYr3HQjMGQrm7KJvkmk&#xA;cgkQMPpHgcrbAuxV2KpDljU7FXYq7FXYq7FXYq7FXYqq203ozB+3RvliQkFHXsYNJV6HY/wORiUy&#xA;CEyTF2KuxV2KuxV2Koyzh/dsXHwvSgPtkZFnELZHjhYrGvxDqx3p8sVUGdmNWNThYtYqjrRqwgfy&#xA;mmRLMK2BKGvEJCkCvbbCGMkqu7zTk5W9zJUSApIifEQG2NSNhl8McjuHHyZoDYlL7LylotnOkoR5&#xA;pImDoZW2qpqNlCj78nLUSkKYQ00Im04uivozfu1YFHoh6dDlMOYb8n0lg+qw2txbDkpjlVxwZdwF&#xA;INRRjXsO+bKyC6qMRLyKO0eTU9JkWZfjgljV2anwPWn3HfKJCM9nK4pYxbLNPv0kHqIaxsdx3Fd9&#xA;/cZhzgQaLmY8gkLCaAgio3B6ZW2uxVIcsanYq7FXYq7FXYq7FXYq7FXYqmNjKJYGhfqo2+X9mRLM&#xA;Id1KMVPUZJg1irsVdiq+OJ5DRR8z2xJSAjIbSNN2+JvfpkCWQir4GSX3KlZm99x9OTDAqeKHYqib&#xA;Jt2Xx3wFlFEySIi1Y0yLJKdaupn06cR/DsOnWnIV/DL8AHELcbUk8BpiGbJ1DLoJDJDHIerqrfeK&#xA;5rJCiQ7mBsAokW8kgpx+FhufnkLpnVsU1DRXitp3lnjVYqcT8RqeQXsvvmb44lQDgw05iSSVZvWP&#xA;lF/Rk5SojMGTrSOTlShH8q+GVxP7xtyC8ZX+WmnltYr3/dcqESID0ZG4g/SBXJagjl1DXpYnn0IZ&#xA;NYTbek3b7Hy65hkOfEozIskhyxqdirsVdirsVdirsVdirsVdiq+CUxSq47dR4jEhIKYXaB0WZNwQ&#xA;K/I9MjFMghMkxcASaDc4qiobIn4pNh/LkTJkIoxVCigFAO2RZuxV2Koa9T4Vfw2OSDGSEwsXYqp/&#xA;pfTLK9itbmcJcz0WOKhJ+I7cqfZr2rkhjlIWBsxOWMTRO5VndnYsx3yLNSmj9WGSP+dSv3imSiaI&#xA;LCcbBDEVQsdugFWJNAAOpJPQZsyadMBbJtHubWbToXtpBMFBRpKGnJT0AIBzX5geI27bARwCt06t&#xA;WLRCpqQSMoLkBItatnmgu4UUs5DFVG5NPiGW4zRDVMWCl2g211+jJY3jdSXYKCCDQqOmW5COIFqg&#xA;LiQjPL/AWTLQKEdtgKdQDvT3x1A9TDSH0rr/AF6GzmiWVOCxuqPKKmkbj4X+QbY/PIxwEiwzlqBG&#xA;VFkUMnqRhu/fMcuUEkybW7FXYq7FXYq7FXYq7FXYq7FXYqmOnPzieJt1Xp8jkZM4rjYCuz7fLHiX&#xA;hV4oI4+gqf5j1wEpAVMCXYq7FXYqtkTnGy+I2xUpbQ1p3ybWknmTzLFpSm2t6Saiw6dViB6FvFvA&#xA;ffmRgwce55ONqNRwbD6nn73E8k5uHkZpy3MyE1Yt1rXNkAKp1ZkSb6vVra4W5toblfszosgHhyFa&#xA;fRmnlGjTvIysAqwFT1oO58Mil595tvaancWNsPTtEYEgVq5IDVb2FdhmzwC4gnm6nUECRA5Jx5Cn&#xA;DWNzb945Q/0OtP8AjTKNWNwXJ0UvSQzSy+wwrvWtO+YJc+LG/Mc06arxLsIgEZVBIHucztPEcDrd&#xA;VIifkt8vN/frX+Uj8cdSOSdGeal5fnmjub23lYsI3FFY1IoWB65VlGwLk4+ZdfxSprtsky+pp95G&#xA;0EnLcBqMae1dsnA+g1zG7Vkj+8F8jsyS2uo4JI7d6j1do2PTkAPhPue2YxjYJcoTAIB6oDFXYq7F&#xA;XYq7FXYq7FXYq7FXYq4Ak0HXFU2srcwxfF9ttz7e2QJbAERgS7FXYq7FXYq7FXYqx3zhq50exElu&#xA;B9buWKRMdwtBVnp4jtmRp8fGd+QcXU5eCO3MvMHd5HZ3Ys7EszMakk9STm1AdOTa3Cr0PyVctcaK&#xA;sXVrZ2j/ANifjB/4Y/dmt1Uanfe7XSSuFdybzSg/An2R1Picxw5JYJ5zt/T1VZgNp41JP+UtV/UB&#xA;mx0srjTq9XGp33pv5Hsbm3tbi9kHFJwohU9TxJq/y32ynVzBIDfo4EAnvZXprn12B/aX8a5hyc6K&#xA;TecpYIZ7eYDnKylOH7PwEGpp/rZk6eRohxdTjBkCnduIG02K4hjWIzqkj8BTdhX+OY8ibouTGIAs&#xA;BJdfnuILZ5oH4SKylmoDUHahqD45ZiAJoteQkBC6R5mS8lkt72NYpUKsjjdCCagkGtCNt/1ZbPTk&#xA;C4tENSLqSP1B0uB9VR+N5GBMidCQCRUH/OmV4jw7nlybMw4hQ581fKm52KuxV2KuxV2KuxV2KuxV&#xA;fFDJK3FBU9z2GJKgI4Lb2a1b45j0/wA+2R5s+SFkvbhzXmVHYLthpjatZXj+p6cjFg32SexwEJBT&#xA;HIs3Yq7FXYq7FUr1vWlsY/Tio104qoO4UeJ/hl+HDxbnk42o1HAKHNiXmKa41XRWllPK4sHDmgAr&#xA;FJ8LbD+VqZmY4iEtuRcGczkhvziw3MtxHYq9M8raLcaZoErTDjc3REjp3VdgFPvSpOarUZRKW3IO&#xA;302IwhvzKJypuQl/oEGqmCWdisdq9WQD7YelVr2+yMtx5jC66tWTCJ1fRM+KiPgoAUCiqNgABsAM&#xA;qbqdbVQl+5BC+3viVCUeZbG4u4bf0IzJIrlduwYdSew2y3DIDm15YkpvprPb21rYvRgiKjnrU+1f&#xA;DKp7klsjsAFbUI1PJGUFGXdCART5fRgiUySSfQNPdmuY0EM7IEqmy0BA+z06L2zIhnkNuji5NPGW&#xA;/IrtS0Z7w2t1HL6V5bEFXH2WBpyU4IZRGx0KcmEyog+oIvKW92KuxV2KuxV2KuxV2Kom2snlozfD&#xA;H49z8sBKQFea7igX0rcCo6t2H9cAFsiaQDMzMWY1J6k5Jg1irsVTezuPWiBP212b+uQIbAVfAl2K&#xA;uxVAaxqsdhb12ad9ok/ifYZbixcZ8mjPmEB5sKmlkmlaWRi0jmrMfHNmAAKDqJSJNlVsZIln4Tb2&#xA;8ymGcf5Eg4n7uuRyCxtzZ4pVLfkxK+tJbO8mtZftwuUJ8aHr9OXRlYtqnHhJBZP5E8ufW5xqdytb&#xA;aBv3Cn9uQd/kv68xdVmocI5uZo8HEeI8nojKGUqehFD9Oa12iSiJzL6QHxV45Y1Umht1S1Ma9hUn&#xA;xOQvdsrZLbm8itIvWkFQCAFHUnwy2EDI0GnJkEBZVFYSMGXoxBX5HpkSKZA3uvJKlkHyJ8aYEroL&#xA;UySrLUBUI271G+AlICreEh0I2rjFMkMx+A1AIoQMLFqPdAR4dPkcKobFDsVdirsVdirsVcASQAKk&#xA;9AMVTC3sUjX1bim2/E9B88iSyEVK6vmeqRfCnQnucICmSEwsXYq7FXYqq205hlDfsnZh7YkJBTkE&#xA;EAg1B3BytsdiqG1C/hsrZppe2yL3ZvAZPHAyNBry5BAWWEXl3Nd3DTzGrt27AdgM2kICIoOmnMyN&#xA;lQyTB2KoubyvLr01texyrEtBDek15VjoAyim5KU65jnMMdj5OZHActS+BZva20Frbx28C8IYlCoo&#xA;8BmvlIk2XZxiAKCrgSpLbxrM0w+034YbRSrgSwnXLkyXrRA1ihPFPc9zmywQqN97qNTO5V0DItBj&#xA;L2MEzj9nio/1SVr+GYefaRDn6beAK+QcJn2ruaD55Do2Hmv0tifVB36Gv34JMoo1kViCwBp0rkWT&#xA;iiEUKgj5Yqh3skofT+Hrt1GStiYpVkmDsVdirsVdiq+GGSVuKCviewxJSAmKR29nHzc1c9+59hke&#xA;bLkgbi6kmbfZR0XJAMSbUcUOxV2KuxV2KuxVMNOuK/uW7bp/TIyDOJRsjpGjO5oigsx8AN8AFpJo&#xA;WwbVdTlv7kyNtEu0SeA/qc2eLGIB02bKZm+iCy1pdirYBJoOuKWZ6LGLO0jtn/vWJaTwDN2+jpms&#xA;zS4pW7fTw4IgHmmeUuQ7FXYqx7zvrJ0/SDFE1Lm7rGlOoX9tvu2+nMnS4+KV9A4ury8MaHMsU0YP&#xA;eW9uimr/AN2x8OH9EpmdM8Nl1kYmRADPdKZUgMQ2SIDiPAZq5mzbucYAFLZWaaUEDc7AYhTujYIE&#xA;hTiv0nuciSzAVMCXYq7FUq/R1z4D78nxNfCXfo658B9+PEvCXfo658B9+PEvCXfo658B9+PEvCV0&#xA;emzFhzIVe5G5x4k8KPEfpRcYUBPYHb6TkWSBks7yRiz0J+eSsMaKz9HXPgPvx4kcJd+jrnwH348S&#xA;8Jd+jrnwH348S8Jd+jrnwH348S8Jd+jrnwH348S8Jd+jrnwH348S8Jd+jrnwH348S8JVrSymjnV3&#xA;pQV6HxFMBKQFXVIJbiwmhh/vHFFqadxXDikBIEsc0TKJAYz/AIY1X+VP+CzO/Mwdd+Tm7/DGq/yp&#xA;/wAFj+Zgv5Obv8Mar/Kn/BY/mYL+TmjNL8u3UNz69wF/disag1q3Yn5ZVl1AIoN2DSkSuSa/U561&#xA;2r41zG4g5vCUcvLiOX2u+QZt4q7FWFeaPKuv6vqr3CNCLdVCQKzkEKNzUce7VzOwZ4QjXV1+o085&#xA;yvakX5a8r6hptrcJcmJpJHUxlSTQAHluQOu2V584kRTZp9OYA2ncNlOgcGnxADY+9cxyXJARFvbm&#xA;OpahbtTASyAV8CXYq7FXYq//2Q==</xmpGImg:image>
               </rdf:li>
            </rdf:Alt>
         </xmp:Thumbnails>
      </rdf:Description>
      <rdf:Description rdf:about=""
            xmlns:xmpMM="http://ns.adobe.com/xap/1.0/mm/"
            xmlns:stRef="http://ns.adobe.com/xap/1.0/sType/ResourceRef#"
            xmlns:stEvt="http://ns.adobe.com/xap/1.0/sType/ResourceEvent#">
         <xmpMM:InstanceID>xmp.iid:C1901FACBCF9E711AF6ED3D0F2551EA5</xmpMM:InstanceID>
         <xmpMM:DocumentID>xmp.did:C1901FACBCF9E711AF6ED3D0F2551EA5</xmpMM:DocumentID>
         <xmpMM:OriginalDocumentID>uuid:5D20892493BFDB11914A8590D31508C8</xmpMM:OriginalDocumentID>
         <xmpMM:RenditionClass>proof:pdf</xmpMM:RenditionClass>
         <xmpMM:DerivedFrom rdf:parseType="Resource">
            <stRef:instanceID>xmp.iid:C0901FACBCF9E711AF6ED3D0F2551EA5</stRef:instanceID>
            <stRef:documentID>xmp.did:C0901FACBCF9E711AF6ED3D0F2551EA5</stRef:documentID>
            <stRef:originalDocumentID>uuid:5D20892493BFDB11914A8590D31508C8</stRef:originalDocumentID>
            <stRef:renditionClass>proof:pdf</stRef:renditionClass>
         </xmpMM:DerivedFrom>
         <xmpMM:History>
            <rdf:Seq>
               <rdf:li rdf:parseType="Resource">
                  <stEvt:action>saved</stEvt:action>
                  <stEvt:instanceID>xmp.iid:C0901FACBCF9E711AF6ED3D0F2551EA5</stEvt:instanceID>
                  <stEvt:when>2018-01-15T17:27:27+06:00</stEvt:when>
                  <stEvt:softwareAgent>Adobe Illustrator CS5.1</stEvt:softwareAgent>
                  <stEvt:changed>/</stEvt:changed>
               </rdf:li>
               <rdf:li rdf:parseType="Resource">
                  <stEvt:action>saved</stEvt:action>
                  <stEvt:instanceID>xmp.iid:C1901FACBCF9E711AF6ED3D0F2551EA5</stEvt:instanceID>
                  <stEvt:when>2018-01-15T18:07:15+06:00</stEvt:when>
                  <stEvt:softwareAgent>Adobe Illustrator CS5.1</stEvt:softwareAgent>
                  <stEvt:changed>/</stEvt:changed>
               </rdf:li>
            </rdf:Seq>
         </xmpMM:History>
      </rdf:Description>
      <rdf:Description rdf:about=""
            xmlns:illustrator="http://ns.adobe.com/illustrator/1.0/">
         <illustrator:StartupProfile>Print</illustrator:StartupProfile>
      </rdf:Description>
      <rdf:Description rdf:about=""
            xmlns:xmpTPg="http://ns.adobe.com/xap/1.0/t/pg/"
            xmlns:stDim="http://ns.adobe.com/xap/1.0/sType/Dimensions#"
            xmlns:xmpG="http://ns.adobe.com/xap/1.0/g/">
         <xmpTPg:HasVisibleOverprint>False</xmpTPg:HasVisibleOverprint>
         <xmpTPg:HasVisibleTransparency>True</xmpTPg:HasVisibleTransparency>
         <xmpTPg:NPages>1</xmpTPg:NPages>
         <xmpTPg:MaxPageSize rdf:parseType="Resource">
            <stDim:w>1114.000000</stDim:w>
            <stDim:h>770.000000</stDim:h>
            <stDim:unit>Pixels</stDim:unit>
         </xmpTPg:MaxPageSize>
         <xmpTPg:PlateNames>
            <rdf:Seq>
               <rdf:li>Cyan</rdf:li>
               <rdf:li>Magenta</rdf:li>
               <rdf:li>Yellow</rdf:li>
               <rdf:li>Black</rdf:li>
            </rdf:Seq>
         </xmpTPg:PlateNames>
         <xmpTPg:SwatchGroups>
            <rdf:Seq>
               <rdf:li rdf:parseType="Resource">
                  <xmpG:groupName>Default Swatch Group</xmpG:groupName>
                  <xmpG:groupType>0</xmpG:groupType>
               </rdf:li>
            </rdf:Seq>
         </xmpTPg:SwatchGroups>
      </rdf:Description>
      <rdf:Description rdf:about=""
            xmlns:pdf="http://ns.adobe.com/pdf/1.3/">
         <pdf:Producer>Adobe PDF library 9.90</pdf:Producer>
      </rdf:Description>
   </rdf:RDF>
</x:xmpmeta>
                                                                                                    
                                                                                                    
                                                                                                    
                                                                                                    
                                                                                                    
                                                                                                    
                                                                                                    
                                                                                                    
                                                                                                    
                                                                                                    
                                                                                                    
                                                                                                    
                                                                                                    
                                                                                                    
                                                                                                    
                                                                                                    
                                                                                                    
                                                                                                    
                                                                                                    
                                                                                                    
                           
<?xpacket end="w"?>
	</metadata>
<g>
	<g opacity="0.5">
		<path fill="#D2E2EB" d="M973.137,728.716c-4.266,6.188-8.505,12.84-12.712,19.954c-1.438,2.427-3.06,2.046-3.637-0.952
			c-1.775-9.229-3.574-18.739-5.396-28.528c-0.61-3.307,0.141-8.02,1.688-10.438c4.528-7.036,9.069-13.548,13.63-19.537
			c1.456-1.914,3.054-0.795,3.567,2.426c1.504,9.585,3.006,18.961,4.479,28.127C975.231,722.759,974.503,726.725,973.137,728.716"/>
		<path fill="#C5D6DF" d="M991.242,705.57c-4.062,4.51-8.089,9.432-12.093,14.767c-1.36,1.827-2.853,0.942-3.325-2.044
			c-1.457-9.156-2.938-18.521-4.433-28.084c-0.499-3.215,0.243-7.3,1.7-9.027c4.208-5.067,8.454-9.683,12.725-13.822
			c1.362-1.334,2.83,0.146,3.267,3.219c1.277,9.188,2.543,18.242,3.792,27.153C993.283,700.649,992.545,704.128,991.242,705.57"/>
		<path fill="#D2E2EB" d="M1041.476,673.284c-3.644,0.729-7.29,1.785-10.896,3.171c-1.223,0.47-2.461-1.271-2.789-3.94
			c-0.998-8.104-2.005-16.257-3.031-24.455c-0.336-2.721,0.385-5.234,1.617-5.563c3.679-0.966,7.381-1.597,11.056-1.904
			c1.205-0.101,2.447,1.935,2.772,4.502c0.972,7.748,1.927,15.474,2.876,23.183C1043.39,670.83,1042.665,673.042,1041.476,673.284"
			/>
		<path fill="#D8E4EB" d="M1057.489,672.121c-3.577-0.183-7.184-0.072-10.767,0.339c-1.189,0.141-2.404-1.772-2.712-4.313
			c-0.948-7.684-1.905-15.39-2.874-23.107c-0.324-2.561,0.393-4.664,1.594-4.674c3.625-0.018,7.242,0.288,10.832,0.846
			c1.191,0.192,2.418,2.326,2.728,4.741c0.947,7.301,1.887,14.608,2.806,21.926C1059.396,670.301,1058.676,672.179,1057.489,672.121
			"/>
		<path fill="#D2E2EB" d="M966.21,686.106c-4.583,5.962-9.146,12.452-13.699,19.47c-1.564,2.417-3.322,1.683-3.95-1.729
			c-1.912-10.457-3.836-21.168-5.774-32.134c-0.649-3.684,0.192-8.583,1.883-10.856c4.913-6.581,9.825-12.581,14.731-18.003
			c1.556-1.722,3.267-0.241,3.802,3.234c1.588,10.393,3.169,20.62,4.743,30.67C968.452,680.055,967.667,684.197,966.21,686.106"/>
		<path fill="#D8E4EB" d="M985.402,664.396c-4.275,4.111-8.536,8.692-12.775,13.719c-1.454,1.731-3.035,0.536-3.545-2.751
			c-1.554-10.021-3.116-20.215-4.688-30.563c-0.521-3.47,0.294-7.584,1.833-9.123c4.493-4.467,8.985-8.454,13.475-11.942
			c1.443-1.105,2.974,0.654,3.425,3.891c1.335,9.696,2.668,19.297,3.986,28.791C987.538,659.542,986.771,663.084,985.402,664.396"/>
		<path fill="#C5D6DF" d="M1003.442,649.971c-4.033,2.576-8.045,5.577-12.027,8.976c-1.37,1.158-2.808-0.359-3.242-3.471
			c-1.304-9.468-2.627-19.031-3.946-28.681c-0.443-3.22,0.344-6.652,1.77-7.62c4.155-2.794,8.326-5.178,12.487-7.125
			c1.34-0.629,2.743,1.326,3.137,4.317c1.171,8.992,2.342,17.946,3.495,26.831C1005.487,646.135,1004.74,649.139,1003.442,649.971"
			/>
		<path fill="#D8E4EB" d="M1037.118,638.134c-3.676,0.275-7.381,0.867-11.064,1.798c-1.238,0.313-2.518-1.608-2.863-4.343
			c-1.046-8.273-2.102-16.557-3.159-24.846c-0.352-2.747,0.385-5.11,1.646-5.24c3.765-0.37,7.521-0.421,11.231-0.158
			c1.226,0.088,2.48,2.256,2.818,4.805c0.996,7.722,2.005,15.46,2.99,23.213C1039.04,635.927,1038.329,638.051,1037.118,638.134"/>
		<path fill="#C5D6DF" d="M1053.26,638.904c-3.585-0.588-7.209-0.918-10.832-0.947c-1.205-0.012-2.451-2.057-2.775-4.615
			c-0.981-7.719-1.979-15.423-2.98-23.109c-0.33-2.541,0.388-4.493,1.603-4.313c3.669,0.526,7.313,1.351,10.913,2.402
			c1.2,0.355,2.432,2.584,2.755,4.955c0.977,7.182,1.94,14.401,2.903,21.654C1055.163,637.34,1054.449,639.108,1053.26,638.904"/>
		<path fill="#48AEE1" d="M911.727,707.879c-6.055,10.872-12.136,22.598-18.268,35.177c-2.124,4.332-4.735,4.707-5.859,0.68
			c-3.47-12.478-6.965-25.454-10.483-38.918c-1.193-4.567-0.177-11.871,2.267-16.134c7.041-12.315,13.982-23.611,20.819-33.949
			c2.167-3.271,4.642-2.295,5.537,2.053c2.649,12.908,5.292,25.483,7.926,37.722C914.518,698.481,913.646,704.411,911.727,707.879"
			/>
		<path fill="#D2E2EB" d="M936.511,667.756c-5.434,7.812-10.897,16.311-16.389,25.523c-1.894,3.182-4.104,2.635-4.954-1.334
			c-2.594-12.205-5.197-24.742-7.799-37.604c-0.877-4.33,0.117-10.339,2.24-13.296c6.088-8.531,12.115-16.28,18.089-23.265
			c1.889-2.219,3.977-0.672,4.659,3.341c2.026,11.995,4.065,23.787,6.098,35.362C939.117,660.271,938.237,665.269,936.511,667.756"
			/>
		<path fill="#D8E4EB" d="M958.877,639.5c-4.924,5.367-9.854,11.316-14.807,17.847c-1.712,2.256-3.614,1.101-4.271-2.673
			c-2.005-11.535-4.01-23.272-6.014-35.208c-0.667-3.993,0.287-8.909,2.137-10.884c5.354-5.688,10.664-10.771,15.938-15.232
			c1.677-1.416,3.476,0.467,4.019,4.128c1.621,10.979,3.252,21.85,4.884,32.596C961.295,633.609,960.447,637.793,958.877,639.5"/>
		<path fill="#4C7FB1" d="M979.268,620.627c-4.504,3.435-9.014,7.362-13.524,11.772c-1.551,1.522-3.231-0.031-3.759-3.552
			c-1.609-10.695-3.219-21.511-4.821-32.434c-0.537-3.642,0.352-7.65,2.004-8.878c4.787-3.552,9.555-6.61,14.278-9.154
			c1.511-0.814,3.104,1.271,3.556,4.586c1.356,9.994,2.721,19.934,4.079,29.82C981.524,616.051,980.705,619.524,979.268,620.627"/>
		<path fill="#D8E4EB" d="M1015.768,603.655c-3.899,0.672-7.845,1.714-11.771,3.122c-1.339,0.481-2.727-1.502-3.115-4.486
			c-1.175-9.018-2.35-18.045-3.53-27.067c-0.393-2.99,0.4-5.639,1.772-5.863c4.068-0.666,8.111-0.968,12.076-0.935
			c1.304,0.019,2.646,2.279,3.008,5.007c1.074,8.263,2.146,16.558,3.225,24.869C1017.784,601.059,1017.04,603.428,1015.768,603.655"
			/>
		<path fill="#C5D6DF" d="M1032.587,602.897c-3.706-0.295-7.474-0.289-11.247,0.027c-1.261,0.106-2.57-1.986-2.923-4.729
			c-1.07-8.274-2.138-16.522-3.214-24.737c-0.354-2.722,0.402-4.864,1.688-4.745c3.859,0.337,7.673,0.987,11.429,1.901
			c1.234,0.306,2.51,2.592,2.844,5.085c1.017,7.554,2.03,15.157,3.037,22.804C1034.534,601.05,1033.814,602.99,1032.587,602.897"/>
		<path fill="#4C7FB1" d="M1048.879,606.058c-3.601-1.091-7.245-1.948-10.92-2.521c-1.215-0.191-2.476-2.365-2.813-4.896
			c-1-7.61-2.016-15.181-3.023-22.699c-0.334-2.474,0.395-4.193,1.622-3.813c3.717,1.166,7.392,2.57,11.01,4.189
			c1.205,0.539,2.439,2.854,2.765,5.143c0.981,6.946,1.967,13.96,2.942,21.021C1050.781,604.837,1050.074,606.426,1048.879,606.058"
			/>
		<path fill="#D8E4EB" d="M899.314,650.509c-6.897,10.271-13.9,21.521-21.022,33.774c-2.475,4.256-5.443,3.986-6.654-0.77
			c-3.704-14.646-7.4-29.766-11.104-45.338c-1.252-5.253,0.064-12.821,2.911-16.733c8.169-11.191,16.151-21.264,23.952-30.274
			c2.45-2.843,5.18-1.16,6.089,3.605c2.707,14.232,5.424,28.196,8.171,41.871C902.54,641.113,901.504,647.264,899.314,650.509"/>
		<path fill="#C5D6DF" d="M927.027,613.886c-6.013,6.902-12.082,14.585-18.225,23.033c-2.134,2.938-4.575,1.814-5.452-2.637
			c-2.688-13.603-5.358-27.488-8.028-41.633c-0.888-4.742,0.303-10.721,2.684-13.227c6.814-7.194,13.513-13.57,20.083-19.146
			c2.081-1.755,4.303,0.335,4.985,4.574c2.05,12.732,4.102,25.317,6.168,37.758C929.925,606.693,928.924,611.695,927.027,613.886"/>
		<path fill="#48AEE1" d="M973.004,575.186c-4.742,2.465-9.527,5.449-14.332,8.931c-1.655,1.197-3.423-0.736-3.954-4.413
			c-1.623-11.127-3.229-22.315-4.829-33.554c-0.525-3.729,0.461-7.471,2.214-8.275c5.104-2.35,10.152-4.196,15.098-5.551
			c1.59-0.432,3.237,1.959,3.678,5.289c1.349,10.055,2.7,20.113,4.062,30.169C975.384,571.11,974.518,574.393,973.004,575.186"/>
		<path fill="#48AEE1" d="M992.67,567.735c-4.304,1.013-8.671,2.455-13.048,4.313c-1.492,0.638-3.06-1.479-3.509-4.783
			c-1.352-9.993-2.688-19.985-4.025-29.978c-0.436-3.306,0.473-6.267,2.022-6.563c4.585-0.855,9.117-1.296,13.532-1.357
			c1.444-0.021,2.912,2.399,3.31,5.362c1.168,8.968,2.348,17.979,3.531,27.02C994.873,564.753,994.063,567.402,992.67,567.735"/>
		<path fill="#D2E2EB" d="M1010.858,565.81c-3.979-0.094-8.027,0.15-12.104,0.754c-1.372,0.201-2.801-2.004-3.192-4.988
			c-1.174-8.983-2.345-17.938-3.51-26.852c-0.387-2.941,0.454-5.283,1.865-5.195c4.214,0.274,8.36,0.891,12.409,1.784
			c1.329,0.298,2.687,2.71,3.038,5.364c1.063,8.041,2.13,16.15,3.209,24.313C1012.928,563.705,1012.162,565.844,1010.858,565.81"/>
		<path fill="#4C7FB1" d="M1027.991,568.228c-3.745-0.961-7.57-1.66-11.435-2.053c-1.285-0.14-2.622-2.395-2.98-5.1
			c-1.063-8.111-2.127-16.171-3.187-24.166c-0.355-2.635,0.438-4.482,1.748-4.104c3.944,1.159,7.82,2.577,11.613,4.208
			c1.258,0.541,2.537,2.938,2.865,5.328c1.009,7.265,2.009,14.605,3.014,22.016C1029.966,566.836,1029.237,568.55,1027.991,568.228"
			/>
		<path fill="#C5D6DF" d="M1044.439,574.134c-3.613-1.656-7.287-3.107-11.015-4.323c-1.225-0.398-2.501-2.692-2.834-5.146
			c-1.003-7.365-2.002-14.669-3.003-21.896c-0.327-2.376,0.418-3.821,1.659-3.208c3.766,1.849,7.461,3.905,11.102,6.126
			c1.218,0.746,2.454,3.121,2.771,5.291c0.97,6.614,1.942,13.311,2.915,20.084C1046.355,573.323,1045.646,574.686,1044.439,574.134"
			/>
		<path fill="#C5D6DF" d="M849.372,634.469c-9.563,13.793-19.406,29.073-29.565,45.923c-3.559,5.891-7.942,6.092-9.802,0.184
			c-5.72-18.293-11.442-37.307-17.173-57.029c-1.93-6.688,0.021-16.641,4.311-21.975c12.205-15.094,23.867-28.479,35.053-40.26
			c3.498-3.666,7.352-1.721,8.639,4.172c3.852,17.54,7.741,34.685,11.654,51.424C853.774,622.352,852.364,630.132,849.372,634.469"
			/>
		<path fill="#006BB0" d="M886.498,586.521c-7.865,8.895-15.922,18.854-24.18,29.927c-2.896,3.861-6.24,2.755-7.494-2.669
			c-3.822-16.63-7.634-33.646-11.396-51.051c-1.271-5.844,0.423-13.313,3.735-16.514c9.455-9.1,18.59-17.048,27.404-23.909
			c2.769-2.15,5.718,0.326,6.616,5.401c2.686,15.207,5.403,30.229,8.153,45.051C890.247,577.626,888.97,583.723,886.498,586.521"/>
		<path fill="#D8E4EB" d="M917.425,556.166c-6.604,5.463-13.354,11.716-20.221,18.798c-2.396,2.465-5.053,0.648-5.947-4.182
			c-2.698-14.708-5.372-29.608-7.999-44.693c-0.88-5.027,0.574-10.687,3.229-12.517c7.602-5.225,14.99-9.649,22.163-13.283
			c2.268-1.142,4.627,1.534,5.293,5.895c1.979,13.124,3.993,26.193,6.043,39.186C920.654,549.655,919.505,554.437,917.425,556.166"
			/>
		<path fill="#C5D6DF" d="M966.762,529.116c-4.951,1.271-10.021,3.021-15.145,5.273c-1.762,0.769-3.614-1.57-4.137-5.313
			c-1.589-11.283-3.15-22.564-4.69-33.836c-0.507-3.729,0.593-7.047,2.449-7.349c5.438-0.879,10.757-1.283,15.896-1.266
			c1.668,0.012,3.357,2.697,3.782,5.963c1.294,9.89,2.604,19.838,3.934,29.829C969.295,525.74,968.359,528.711,966.762,529.116"/>
		<path fill="#4C7FB1" d="M987.275,526.527c-4.428-0.012-8.969,0.351-13.568,1.122c-1.556,0.257-3.18-2.146-3.621-5.444
			c-1.314-9.914-2.615-19.788-3.894-29.602c-0.422-3.242,0.558-5.797,2.176-5.672c4.815,0.398,9.502,1.154,14.039,2.211
			c1.488,0.357,2.985,2.983,3.361,5.837c1.129,8.677,2.269,17.44,3.428,26.271C989.569,524.182,988.721,526.527,987.275,526.527"/>
		<path fill="#C5D6DF" d="M1005.985,528.779c-4.051-0.964-8.197-1.64-12.423-1.987c-1.416-0.121-2.88-2.546-3.259-5.466
			c-1.146-8.766-2.276-17.461-3.402-26.073c-0.366-2.847,0.521-4.807,1.971-4.368c4.358,1.326,8.597,2.92,12.72,4.741
			c1.361,0.604,2.728,3.156,3.064,5.684c1.028,7.683,2.064,15.46,3.107,23.318C1008.111,527.25,1007.331,529.089,1005.985,528.779"
			/>
		<path fill="#48AEE1" d="M1023.438,534.734c-3.796-1.687-7.678-3.165-11.633-4.373c-1.309-0.409-2.658-2.815-3.005-5.423
			c-1.046-7.813-2.075-15.537-3.102-23.172c-0.332-2.506,0.492-4.007,1.817-3.339c4.031,2.024,7.954,4.255,11.797,6.649
			c1.283,0.796,2.563,3.28,2.885,5.53c0.965,6.861,1.938,13.829,2.921,20.889C1025.444,533.853,1024.698,535.291,1023.438,534.734"
			/>
		<path fill="#D8E4EB" d="M1040.049,543.618c-3.644-2.266-7.344-4.364-11.107-6.271c-1.242-0.623-2.521-3.021-2.854-5.363
			c-0.976-7.018-1.95-13.938-2.91-20.762c-0.316-2.24,0.445-3.376,1.703-2.53c3.8,2.571,7.531,5.295,11.195,8.149
			c1.223,0.947,2.455,3.37,2.765,5.399c0.93,6.195,1.88,12.491,2.827,18.886C1041.987,543.263,1041.268,544.376,1040.049,543.618"/>
		<path fill="#006BB0" d="M775.64,619.985c-14.938,19.364-30.694,41.233-47.354,65.854c-5.922,8.718-13.358,9.875-16.597,2.104
			c-10.053-24.229-20.162-49.758-30.327-76.586c-3.474-9.144,0.054-23.223,7.646-30.949c21.245-21.512,40.982-39.986,59.317-55.808
			c5.646-4.87,11.788-2.307,13.823,5.398c6.02,22.881,12.117,45.109,18.244,66.672C782.389,603.675,780.287,613.978,775.64,619.985"
			/>
		<path fill="#D8E4EB" d="M830.908,555.542c-11.313,11.581-23.144,24.763-35.491,39.682c-4.369,5.258-9.488,4.125-11.439-2.815
			c-5.951-21.378-11.886-43.396-17.729-66.035c-1.979-7.623,0.731-17.369,5.946-21.481c14.709-11.573,28.574-21.419,41.647-29.678
			c4.071-2.562,8.327,0.646,9.601,6.98c3.76,18.967,7.6,37.668,11.517,56.05C836.227,544.274,834.434,551.926,830.908,555.542"/>
		<path fill="#48AEE1" d="M873.69,517.365c-8.892,6.677-18.098,14.455-27.658,23.361c-3.354,3.133-7.105,0.979-8.354-4.994
			c-3.811-18.217-7.56-36.722-11.244-55.486c-1.217-6.267,0.916-13.19,4.723-15.314c10.842-6.012,21.194-10.938,31.029-14.831
			c3.094-1.229,6.257,2.12,7.104,7.343c2.55,15.735,5.172,31.396,7.839,46.949C878.012,509.521,876.479,515.281,873.69,517.365"/>
		<path fill="#D2E2EB" d="M908.004,496.061c-7.207,3.479-14.66,7.739-22.314,12.813c-2.681,1.768-5.547-0.811-6.412-5.895
			c-2.615-15.412-5.184-30.905-7.684-46.478c-0.834-5.166,0.903-10.203,3.823-11.144c8.435-2.683,16.537-4.631,24.261-5.879
			c2.461-0.395,4.929,2.873,5.547,7.227c1.86,13.158,3.776,26.341,5.73,39.525C911.597,490.603,910.282,494.958,908.004,496.061"/>
		<path fill="#D8E4EB" d="M936.441,485.958c-6.01,1.339-12.229,3.253-18.589,5.778c-2.201,0.867-4.504-1.865-5.147-6.191
			c-1.917-13.062-3.797-26.118-5.636-39.146c-0.602-4.305,0.835-8.022,3.179-8.229c6.845-0.593,13.449-0.642,19.751-0.224
			c2.035,0.146,4.048,3.267,4.534,6.933c1.454,11.122,2.944,22.313,4.47,33.578C939.508,482.196,938.37,485.519,936.441,485.958"/>
		<path fill="#48AEE1" d="M960.729,483.494c-5.156-0.127-10.487,0.181-15.959,0.944c-1.855,0.257-3.784-2.479-4.279-6.188
			c-1.508-11.164-2.979-22.263-4.421-33.275c-0.471-3.631,0.743-6.396,2.695-6.13c5.771,0.794,11.332,1.988,16.662,3.492
			c1.745,0.495,3.456,3.458,3.854,6.583c1.217,9.509,2.452,19.12,3.708,28.83C963.409,480.98,962.406,483.525,960.729,483.494"/>
		<path fill="#4C7FB1" d="M982.052,486.404c-4.544-1.141-9.252-1.985-14.073-2.467c-1.619-0.166-3.286-2.861-3.706-6.068
			c-1.243-9.617-2.471-19.153-3.666-28.58c-0.398-3.098,0.659-5.159,2.343-4.576c5.005,1.751,9.847,3.776,14.507,6.025
			c1.535,0.74,3.042,3.546,3.396,6.246c1.063,8.23,2.138,16.575,3.232,25.021C984.446,484.826,983.548,486.775,982.052,486.404"/>
		<path fill="#D2E2EB" d="M1001.265,493.213c-4.124-1.883-8.37-3.555-12.732-4.956c-1.448-0.466-2.941-3.088-3.299-5.888
			c-1.093-8.38-2.164-16.658-3.217-24.818c-0.345-2.683,0.593-4.216,2.079-3.411c4.479,2.425,8.809,5.046,13.002,7.813
			c1.395,0.924,2.768,3.589,3.083,5.946c0.97,7.209,1.952,14.526,2.949,21.958C1003.459,492.345,1002.637,493.834,1001.265,493.213"
			/>
		<path fill="#006BB0" d="M1019.013,502.926c-3.843-2.444-7.775-4.731-11.807-6.822c-1.334-0.695-2.694-3.237-3.026-5.705
			c-0.992-7.378-1.975-14.646-2.934-21.796c-0.317-2.35,0.538-3.474,1.891-2.509c4.092,2.914,8.072,5.968,11.965,9.138
			c1.291,1.049,2.567,3.603,2.87,5.688c0.916,6.387,1.852,12.877,2.78,19.487C1021.064,502.616,1020.297,503.736,1019.013,502.926"
			/>
		<path fill="#D2E2EB" d="M1035.79,514.91c-3.671-2.898-7.4-5.668-11.204-8.293c-1.251-0.864-2.53-3.341-2.85-5.537
			c-0.936-6.562-1.864-13.016-2.772-19.354c-0.299-2.078,0.497-2.881,1.763-1.796c3.83,3.292,7.586,6.691,11.273,10.171
			c1.232,1.157,2.455,3.61,2.745,5.479c0.892,5.718,1.79,11.55,2.697,17.479C1037.744,515.049,1037.005,515.867,1035.79,514.91"/>
		<path fill="#D8E4EB" d="M746.263,516.975c-18.604,15.462-38.636,33.6-60.29,54.738c-7.748,7.598-17.011,6.354-20.509-3.288
			c-10.811-29.855-21.562-60.98-32.25-93.321c-3.584-10.958,1.708-24.541,11.54-29.847c27.222-14.626,51.876-26.408,74.271-35.738
			c6.866-2.857,13.889,1.914,15.854,10.37c5.883,25.276,11.898,50.08,18.045,74.358
			C754.931,502.185,751.991,512.218,746.263,516.975"/>
		<path fill="#D8E4EB" d="M861.352,445.007c-9.897,3.668-20.347,8.338-31.289,14.104c-3.838,2.021-7.979-1.331-9.175-7.674
			c-3.641-19.245-7.17-38.621-10.604-58.108c-1.146-6.468,1.51-12.396,5.812-13.097c12.302-2.004,23.85-3.078,34.627-3.375
			c3.418-0.091,6.762,4.122,7.521,9.33c2.33,15.753,4.744,31.54,7.229,47.348C866.291,438.773,864.46,443.845,861.352,445.007"/>
		<path fill="#006BB0" d="M899.077,435.263c-7.76,1.074-15.915,2.82-24.4,5.315c-2.942,0.856-6.018-2.536-6.827-7.719
			c-2.436-15.618-4.798-31.223-7.081-46.778c-0.749-5.142,1.284-9.273,4.473-9.161c9.254,0.351,18.009,1.288,26.234,2.707
			c2.646,0.451,5.189,4.292,5.749,8.51c1.682,12.813,3.43,25.733,5.223,38.74C903.042,431.208,901.554,434.92,899.077,435.263"/>
		<path fill="#D2E2EB" d="M929.534,434.411c-6.32-0.556-12.951-0.649-19.832-0.216c-2.361,0.151-4.775-3.143-5.362-7.423
			c-1.771-12.867-3.486-25.646-5.141-38.315c-0.538-4.166,1.076-7.104,3.573-6.521c7.327,1.738,14.291,3.858,20.894,6.282
			c2.139,0.792,4.192,4.281,4.628,7.764c1.32,10.618,2.679,21.364,4.076,32.236C932.833,431.842,931.583,434.586,929.534,434.411"/>
		<path fill="#48AEE1" d="M955.049,439.332c-5.348-1.609-10.92-2.908-16.715-3.842c-1.956-0.312-3.944-3.433-4.403-7.021
			c-1.378-10.762-2.726-21.4-4.022-31.906c-0.43-3.451,0.91-5.552,2.947-4.688c6.052,2.6,11.828,5.454,17.342,8.501
			c1.809,0.991,3.537,4.19,3.898,7.119c1.102,8.938,2.229,18.023,3.391,27.233C957.874,437.816,956.797,439.859,955.049,439.332"/>
		<path fill="#006BB0" d="M977.122,448.151c-4.669-2.328-9.519-4.45-14.54-6.301c-1.682-0.615-3.374-3.565-3.762-6.622
			c-1.15-9.128-2.271-18.128-3.361-26.986c-0.354-2.898,0.783-4.416,2.515-3.354c5.167,3.146,10.138,6.474,14.917,9.915
			c1.576,1.139,3.086,4.086,3.405,6.589c0.97,7.648,1.962,15.438,2.981,23.358C979.617,447.403,978.663,448.917,977.122,448.151"/>
		<path fill="#4C7FB1" d="M996.805,459.695c-4.212-2.838-8.547-5.528-13.021-8.028c-1.49-0.828-2.987-3.621-3.326-6.255
			c-1.009-7.854-1.998-15.575-2.958-23.157c-0.319-2.48,0.674-3.552,2.196-2.375c4.563,3.519,8.97,7.162,13.252,10.883
			c1.406,1.229,2.773,3.981,3.068,6.153c0.892,6.638,1.807,13.403,2.729,20.306C999.052,459.533,998.195,460.633,996.805,459.695"/>
		<path fill="#48AEE1" d="M1014.817,473.243c-3.898-3.227-7.885-6.338-11.975-9.311c-1.354-0.991-2.725-3.646-3.03-5.939
			c-0.926-6.846-1.834-13.561-2.726-20.146c-0.287-2.15,0.604-2.873,1.979-1.617c4.136,3.781,8.167,7.646,12.1,11.573
			c1.311,1.301,2.574,3.895,2.852,5.802c0.854,5.831,1.715,11.79,2.596,17.87C1016.91,473.52,1016.111,474.305,1014.817,473.243"/>
		<path fill="#48AEE1" d="M1031.73,488.318c-3.698-3.52-7.453-6.962-11.285-10.303c-1.268-1.106-2.543-3.638-2.836-5.671
			c-0.877-6.039-1.735-11.954-2.584-17.751c-0.274-1.894,0.542-2.347,1.821-1.03c3.854,3.981,7.625,8.026,11.349,12.118
			c1.229,1.357,2.439,3.827,2.713,5.518c0.826,5.196,1.672,10.512,2.519,15.938C1033.714,488.967,1032.958,489.488,1031.73,488.318"
			/>
		<path fill="#D2E2EB" d="M594.586,460.205c-18.351,10.242-37.822,21.752-58.644,34.504c-22.513,13.855-46.671,29.302-72.664,46.53
			c-18.528,12.275-40.981,10.65-49.413-4.983c-26.404-49.141-53.324-101.711-80.442-157.826
			c-9.371-19.232,5.779-40.644,32.051-46.587c36.38-8.232,69.479-15.088,99.708-20.751c27.6-5.258,53.056-9.396,76.528-12.854
			c14.575-2.078,28.829,6.835,32.55,19.548c11.061,37.829,22.408,74.616,33.915,110.311
			C611.921,439.696,606.004,453.787,594.586,460.205"/>
		<path fill="#D8E4EB" d="M717.028,401.116c-22.682,8.774-47.699,19.976-75.384,33.954c-10.018,5.061-21.272,0.355-24.896-11.026
			c-11.03-35.019-21.869-71.067-32.399-108.076c-3.564-12.426,4.072-23.844,16.44-25.134c34.044-3.447,64.052-5.112,90.605-5.274
			c8.146-0.05,15.964,7.246,17.753,16.102c5.403,26.648,11.019,53.082,16.846,79.233
			C727.913,389.493,723.976,398.404,717.028,401.116"/>
		<path fill="#D2E2EB" d="M795.23,377.629c-15.097,2.994-31.456,7.28-49.132,13.084c-6.293,2.02-13.01-2.936-14.86-11.402
			c-5.615-25.713-11.038-51.688-16.262-77.84c-1.729-8.691,2.933-15.622,10.142-15.311c20.348,0.899,38.807,2.696,55.554,5.226
			c5.246,0.797,10.182,6.801,11.218,13.323c3.094,19.769,6.342,39.597,9.742,59.438C802.751,370.727,799.938,376.687,795.23,377.629
			"/>
		<path fill="#C5D6DF" d="M890.938,375.546c-8.261-1.613-17.057-2.762-26.366-3.333c-3.205-0.213-6.45-4.43-7.168-9.538
			c-2.168-15.316-4.24-30.503-6.214-45.537c-0.648-4.941,1.68-7.939,5.104-6.674c9.983,3.718,19.293,7.743,27.999,11.963
			c2.803,1.367,5.401,5.704,5.881,9.678c1.457,12.119,2.981,24.419,4.575,36.879C895.275,373.147,893.594,376.063,890.938,375.546"
			/>
		<path fill="#D8E4EB" d="M923.25,384.859c-6.622-2.563-13.604-4.856-20.971-6.753c-2.503-0.649-4.998-4.464-5.524-8.583
			c-1.563-12.312-3.061-24.463-4.494-36.431c-0.462-3.926,1.331-5.972,3.951-4.555c7.729,4.182,15.004,8.53,21.879,13.007
			c2.229,1.457,4.303,5.255,4.686,8.486c1.145,9.875,2.342,19.935,3.582,30.157C926.77,383.615,925.4,385.69,923.25,384.859"/>
		<path fill="#D2E2EB" d="M949.855,397.557c-5.53-3.149-11.316-6.131-17.385-8.845c-2.046-0.921-4.069-4.39-4.483-7.773
			c-1.229-10.119-2.403-20.069-3.535-29.835c-0.37-3.194,1.08-4.584,3.192-3.099c6.266,4.405,12.227,8.921,17.908,13.499
			c1.856,1.498,3.601,4.883,3.908,7.57c0.971,8.223,1.966,16.61,3.013,25.164C952.821,397.11,951.664,398.589,949.855,397.557"/>
		<path fill="#C5D6DF" d="M972.592,412.407c-4.785-3.524-9.762-6.939-14.949-10.185c-1.728-1.089-3.438-4.271-3.789-7.108
			c-1.023-8.473-2.019-16.778-2.983-24.916c-0.312-2.657,0.896-3.575,2.675-2.066c5.301,4.521,10.372,9.104,15.259,13.727
			c1.604,1.518,3.11,4.586,3.396,6.861c0.864,6.964,1.756,14.092,2.674,21.374C975.172,412.535,974.167,413.574,972.592,412.407"/>
		<path fill="#D2E2EB" d="M992.67,428.689c-4.292-3.785-8.699-7.492-13.271-11.089c-1.517-1.202-3.018-4.134-3.327-6.558
			c-0.909-7.219-1.796-14.276-2.651-21.183c-0.282-2.254,0.759-2.834,2.312-1.307c4.628,4.575,9.098,9.188,13.443,13.833
			c1.425,1.531,2.784,4.345,3.046,6.302c0.807,6.005,1.629,12.149,2.48,18.438C994.979,429.243,994.081,429.94,992.67,428.689"/>
		<path fill="#C5D6DF" d="M1027.938,464.074c-3.717-4.135-7.494-8.225-11.348-12.249c-1.282-1.336-2.545-3.916-2.813-5.757
			c-0.808-5.469-1.59-10.809-2.359-16.014c-0.256-1.7,0.597-1.817,1.878-0.274c3.868,4.632,7.66,9.286,11.396,13.956
			c1.236,1.547,2.427,4.019,2.682,5.526c0.754,4.648,1.525,9.422,2.309,14.313C1029.945,465.219,1029.17,465.446,1027.938,464.074"
			/>
		<path fill="#D2E2EB" d="M689.585,276.74c-26.851-0.567-57.228,0.241-91.761,2.783c-12.552,0.977-26.014-8.329-29.453-21.063
			c-10.456-38.801-20.604-78.177-30.175-118.041c-3.274-13.243,7.093-20.604,22.085-16.269
			c41.015,11.771,76.295,23.256,106.896,34.443c9.369,3.395,17.816,13.337,19.35,22.145c4.551,26.722,9.447,53.529,14.616,80.355
			C702.852,269.99,697.815,276.887,689.585,276.74"/>
		<path fill="#D8E4EB" d="M779.656,284.97c-16.863-2.963-35.473-5.277-56.02-6.709c-7.275-0.521-14.734-7.858-16.383-16.578
			c-4.979-26.289-9.648-52.544-14.07-78.688c-1.438-8.623,4.279-12.951,12.411-9.641c22.971,9.288,43.447,18.538,61.825,27.609
			c5.75,2.853,10.938,10.188,11.759,16.417c2.542,18.982,5.27,38.2,8.161,57.616C788.306,281.471,784.939,285.919,779.656,284.97"/>
		<path fill="#C5D6DF" d="M839.974,300.193c-11.702-3.975-24.396-7.615-38.177-10.765c-4.798-1.092-9.563-7.081-10.507-13.449
			c-2.808-19.088-5.467-37.97-7.925-56.618c-0.821-6.117,2.882-8.818,8.045-6.039c14.847,8,28.396,15.955,40.813,23.804
			c3.953,2.499,7.494,8.292,8.027,12.954c1.638,14.256,3.391,28.765,5.254,43.504C846.135,298.52,843.709,301.46,839.974,300.193"/>
		<path fill="#D2E2EB" d="M883.832,318.583c-8.731-4.421-18.079-8.657-28.105-12.616c-3.438-1.36-6.803-6.369-7.414-11.235
			c-1.817-14.525-3.545-28.815-5.148-42.856c-0.521-4.587,2.082-6.311,5.704-3.849c10.554,7.149,20.33,14.283,29.438,21.332
			c2.927,2.269,5.559,7.034,5.943,10.666c1.192,11.133,2.462,22.508,3.805,34.106C888.497,318.021,886.648,320.01,883.832,318.583"
			/>
		<path fill="#C5D6DF" d="M945.254,358.934c-5.69-4.688-11.664-9.317-17.943-13.848c-2.115-1.523-4.156-5.291-4.513-8.409
			c-1.045-9.276-2.045-18.348-2.984-27.203c-0.31-2.888,1.244-3.535,3.413-1.457c6.43,6.136,12.532,12.241,18.354,18.292
			c1.902,1.971,3.618,5.508,3.89,7.917c0.823,7.39,1.684,14.974,2.585,22.743C948.355,359.582,947.121,360.46,945.254,358.934"/>
		<path fill="#D2E2EB" d="M968.535,379.683c-4.894-4.705-9.979-9.369-15.275-13.987c-1.776-1.547-3.492-4.899-3.791-7.487
			c-0.894-7.69-1.753-15.194-2.564-22.509c-0.27-2.382,1.019-2.715,2.82-0.762c5.389,5.804,10.544,11.582,15.513,17.315
			c1.624,1.878,3.12,5.021,3.363,7.048c0.746,6.22,1.523,12.614,2.326,19.17C971.197,380.682,970.143,381.228,968.535,379.683"/>
		<path fill="#D8E4EB" d="M1073.881,674.835c-3.574-0.99-7.18-1.736-10.775-2.203c-1.19-0.158-2.396-2.202-2.702-4.617
			c-0.921-7.282-1.85-14.555-2.796-21.824c-0.317-2.401,0.39-4.154,1.58-3.882c3.609,0.855,7.207,1.95,10.769,3.271
			c1.203,0.438,2.42,2.671,2.731,4.946c0.951,6.896,1.881,13.813,2.806,20.757C1075.808,673.588,1075.078,675.157,1073.881,674.835"
			/>
		<path fill="#C5D6DF" d="M1090.094,680.866c-3.642-1.688-7.283-3.172-10.944-4.409c-1.204-0.405-2.421-2.577-2.724-4.872
			c-0.921-6.929-1.856-13.827-2.813-20.698c-0.313-2.271,0.398-3.711,1.592-3.196c3.645,1.572,7.271,3.361,10.885,5.333
			c1.209,0.669,2.447,2.979,2.771,5.141c0.969,6.551,1.929,13.145,2.868,19.769C1092.057,680.133,1091.321,681.428,1090.094,680.866
			"/>
		<path fill="#D8E4EB" d="M1106.745,689.962c-3.749-2.343-7.521-4.491-11.271-6.446c-1.228-0.637-2.478-2.911-2.787-5.114
			c-0.942-6.604-1.911-13.183-2.883-19.71c-0.321-2.155,0.402-3.33,1.615-2.6c3.731,2.227,7.44,4.646,11.158,7.229
			c1.249,0.869,2.54,3.258,2.873,5.321c1.014,6.26,2.007,12.575,3.001,18.933C1108.775,689.691,1108.016,690.75,1106.745,689.962"/>
		<path fill="#D2E2EB" d="M1069.659,643.406c-3.564-1.349-7.156-2.482-10.771-3.355c-1.188-0.283-2.409-2.434-2.73-4.828
			c-0.956-7.215-1.92-14.396-2.904-21.535c-0.314-2.355,0.39-3.938,1.575-3.504c3.631,1.32,7.226,2.871,10.786,4.618
			c1.188,0.587,2.412,2.872,2.732,5.085c0.977,6.705,1.946,13.457,2.896,20.264C1071.561,642.412,1070.85,643.865,1069.659,643.406"
			/>
		<path fill="#C5D6DF" d="M1085.784,650.968c-3.61-2-7.243-3.817-10.882-5.415c-1.193-0.526-2.421-2.755-2.735-5.01
			c-0.952-6.782-1.92-13.513-2.894-20.194c-0.326-2.202,0.381-3.477,1.57-2.829c3.637,1.985,7.229,4.161,10.828,6.505
			c1.202,0.781,2.439,3.115,2.77,5.193c0.988,6.308,1.969,12.681,2.951,19.107C1087.712,650.467,1086.999,651.643,1085.784,650.968"
			/>
		<path fill="#D2E2EB" d="M1102.271,661.363c-3.721-2.606-7.431-5.046-11.151-7.296c-1.215-0.735-2.46-3.045-2.798-5.182
			c-0.969-6.409-1.962-12.761-2.951-19.054c-0.32-2.069,0.389-3.077,1.596-2.237c3.687,2.574,7.37,5.313,11.051,8.196
			c1.233,0.967,2.517,3.354,2.853,5.324c1.021,5.982,2.05,12.031,3.053,18.15C1104.263,661.306,1103.521,662.234,1102.271,661.363"
			/>
		<path fill="#006BB0" d="M1065.305,612.699c-3.562-1.773-7.148-3.361-10.777-4.724c-1.191-0.446-2.421-2.677-2.747-5.019
			c-0.976-7.024-1.956-13.986-2.938-20.893c-0.317-2.271,0.396-3.64,1.581-3.026c3.644,1.862,7.24,3.912,10.801,6.138
			c1.191,0.742,2.409,3.072,2.733,5.186c0.973,6.425,1.951,12.919,2.921,19.477C1067.195,612.021,1066.501,613.297,1065.305,612.699
			"/>
		<path fill="#48AEE1" d="M1081.365,622.047c-3.589-2.367-7.193-4.574-10.826-6.586c-1.188-0.664-2.419-2.945-2.739-5.121
			c-0.97-6.535-1.939-13.005-2.922-19.396c-0.315-2.104,0.387-3.17,1.571-2.377c3.61,2.441,7.21,5.034,10.781,7.771
			c1.188,0.921,2.43,3.265,2.75,5.232c0.99,5.996,1.982,12.066,2.959,18.211C1083.279,621.835,1082.567,622.84,1081.365,622.047"/>
		<path fill="#D2E2EB" d="M1097.705,633.927c-3.677-2.908-7.363-5.669-11.051-8.264c-1.201-0.854-2.452-3.187-2.771-5.23
			c-0.987-6.125-1.974-12.174-2.96-18.143c-0.327-1.964,0.376-2.776,1.577-1.813c3.655,2.949,7.296,6.037,10.949,9.241
			c1.224,1.08,2.479,3.457,2.831,5.309c1.009,5.645,2.036,11.358,3.037,17.163C1099.661,634.127,1098.941,634.9,1097.705,633.927"/>
		<path fill="#D2E2EB" d="M1060.913,583.162c-3.561-2.252-7.159-4.346-10.796-6.245c-1.195-0.623-2.436-2.932-2.756-5.18
			c-0.972-6.728-1.943-13.376-2.91-19.939c-0.319-2.156,0.404-3.269,1.604-2.468c3.65,2.433,7.248,5.024,10.819,7.752
			c1.188,0.909,2.408,3.27,2.723,5.258c0.959,6.059,1.925,12.204,2.89,18.435C1062.808,582.854,1062.105,583.922,1060.913,583.162"
			/>
		<path fill="#D8E4EB" d="M1076.923,594.471c-3.573-2.765-7.167-5.396-10.78-7.864c-1.186-0.811-2.414-3.135-2.735-5.21
			c-0.959-6.199-1.924-12.315-2.884-18.353c-0.318-1.979,0.392-2.813,1.577-1.859c3.606,2.916,7.188,5.958,10.749,9.107
			c1.191,1.063,2.41,3.409,2.729,5.253c0.974,5.612,1.938,11.312,2.919,17.104C1078.826,594.589,1078.119,595.394,1076.923,594.471"
			/>
		<path fill="#C5D6DF" d="M1093.138,607.968c-3.652-3.232-7.296-6.35-10.95-9.318c-1.2-0.973-2.438-3.317-2.765-5.249
			c-0.968-5.766-1.95-11.445-2.913-17.038c-0.322-1.83,0.387-2.43,1.576-1.335c3.637,3.335,7.256,6.783,10.876,10.334
			c1.214,1.191,2.46,3.551,2.783,5.272c0.999,5.243,2.004,10.586,3,16.014C1095.071,608.465,1094.361,609.049,1093.138,607.968"/>
		<path fill="#006BB0" d="M1109.832,623.515c-3.782-3.68-7.553-7.243-11.305-10.686c-1.231-1.133-2.506-3.504-2.84-5.316
			c-1.009-5.407-1.996-10.729-3-15.963c-0.316-1.71,0.396-2.109,1.617-0.887c3.71,3.733,7.441,7.573,11.187,11.511
			c1.256,1.314,2.55,3.698,2.886,5.325c1.043,4.951,2.078,10.004,3.114,15.142C1111.836,624.359,1111.091,624.753,1109.832,623.515"
			/>
		<path fill="#C5D6DF" d="M1056.575,555.189c-3.569-2.759-7.171-5.388-10.821-7.862c-1.205-0.814-2.431-3.188-2.757-5.309
			c-0.943-6.337-1.886-12.589-2.821-18.732c-0.301-2.017,0.43-2.843,1.638-1.854c3.655,3.018,7.27,6.158,10.844,9.399
			c1.189,1.078,2.395,3.465,2.702,5.305c0.93,5.631,1.862,11.364,2.798,17.19C1058.477,555.285,1057.768,556.117,1056.575,555.189"
			/>
		<path fill="#006BB0" d="M1072.547,568.552c-3.561-3.187-7.138-6.257-10.746-9.204c-1.186-0.969-2.411-3.318-2.719-5.263
			c-0.948-5.801-1.87-11.509-2.803-17.108c-0.303-1.832,0.41-2.42,1.599-1.307c3.597,3.391,7.165,6.881,10.726,10.462
			c1.186,1.193,2.394,3.539,2.694,5.234c0.943,5.188,1.884,10.47,2.825,15.851C1074.447,569.025,1073.738,569.617,1072.547,568.552"
			/>
		<path fill="#D8E4EB" d="M1088.648,583.733c-3.619-3.571-7.241-7.049-10.859-10.41c-1.191-1.105-2.418-3.452-2.74-5.251
			c-0.941-5.355-1.886-10.613-2.824-15.775c-0.309-1.69,0.405-2.063,1.598-0.846c3.601,3.729,7.195,7.539,10.798,11.438
			c1.202,1.303,2.435,3.631,2.751,5.209c0.957,4.823,1.925,9.743,2.882,14.757C1090.584,584.539,1089.862,584.929,1088.648,583.733"
			/>
		<path fill="#D2E2EB" d="M1105.177,600.639c-3.741-3.959-7.472-7.813-11.185-11.572c-1.211-1.228-2.476-3.581-2.793-5.26
			c-0.969-4.999-1.938-9.898-2.896-14.702c-0.313-1.57,0.412-1.766,1.612-0.438c3.674,4.049,7.36,8.18,11.072,12.384
			c1.246,1.412,2.52,3.746,2.841,5.229c1.005,4.529,2.006,9.158,3.004,13.882C1107.171,601.746,1106.425,601.957,1105.177,600.639"
			/>
		<path fill="#D8E4EB" d="M1052.368,529.089c-3.576-3.28-7.188-6.455-10.844-9.521c-1.206-1.001-2.438-3.416-2.741-5.395
			c-0.905-5.887-1.803-11.663-2.688-17.329c-0.292-1.854,0.462-2.396,1.673-1.203c3.662,3.598,7.277,7.278,10.863,11.034
			c1.188,1.249,2.385,3.627,2.671,5.316c0.884,5.159,1.777,10.433,2.68,15.808C1054.274,529.605,1053.563,530.177,1052.368,529.089"
			/>
		<path fill="#48AEE1" d="M1068.316,544.522c-3.561-3.604-7.131-7.126-10.726-10.556c-1.184-1.126-2.395-3.492-2.69-5.289
			c-0.896-5.349-1.789-10.594-2.674-15.729c-0.288-1.678,0.44-2.001,1.625-0.732c3.59,3.857,7.152,7.79,10.701,11.784
			c1.186,1.328,2.372,3.663,2.661,5.201c0.892,4.731,1.786,9.565,2.692,14.496C1070.213,545.361,1069.5,545.727,1068.316,544.522"/>
		<path fill="#D2E2EB" d="M1084.325,561.394c-3.608-3.914-7.192-7.757-10.798-11.507c-1.19-1.236-2.396-3.573-2.701-5.228
			c-0.906-4.915-1.806-9.723-2.69-14.428c-0.295-1.537,0.427-1.683,1.61-0.335c3.584,4.112,7.163,8.28,10.738,12.507
			c1.189,1.414,2.406,3.712,2.705,5.144c0.903,4.375,1.825,8.854,2.75,13.428C1086.249,562.515,1085.529,562.705,1084.325,561.394"
			/>
		<path fill="#D8E4EB" d="M1100.686,579.656c-3.711-4.228-7.396-8.373-11.069-12.441c-1.201-1.344-2.423-3.666-2.748-5.193
			c-0.926-4.563-1.835-9.02-2.751-13.38c-0.302-1.42,0.432-1.41,1.627,0.02c3.639,4.353,7.29,8.763,10.979,13.233
			c1.229,1.498,2.474,3.789,2.773,5.128c0.946,4.092,1.896,8.285,2.851,12.579C1102.669,581.043,1101.936,581.064,1100.686,579.656"
			/>
		<path fill="#C5D6DF" d="M1048.36,505.071c-3.583-3.791-7.207-7.504-10.872-11.144c-1.206-1.204-2.431-3.645-2.714-5.449
			c-0.851-5.387-1.688-10.644-2.521-15.793c-0.267-1.679,0.504-1.921,1.719-0.546c3.667,4.149,7.288,8.354,10.884,12.601
			c1.188,1.408,2.365,3.775,2.637,5.301c0.824,4.665,1.666,9.44,2.506,14.336C1050.282,506.019,1049.553,506.33,1048.36,505.071"/>
		<path fill="#006BB0" d="M1080.203,541.06c-3.584-4.25-7.152-8.447-10.733-12.577c-1.187-1.36-2.374-3.678-2.659-5.178
			c-0.852-4.442-1.693-8.782-2.528-13.018c-0.271-1.382,0.466-1.296,1.638,0.177c3.562,4.467,7.115,8.976,10.678,13.521
			c1.191,1.518,2.37,3.777,2.646,5.051c0.859,3.926,1.715,7.948,2.589,12.079C1082.13,542.5,1081.396,542.48,1080.203,541.06"/>
		<path fill="#D2E2EB" d="M1096.429,560.638c-3.672-4.492-7.321-8.925-10.968-13.298c-1.203-1.438-2.406-3.729-2.707-5.116
			c-0.871-4.105-1.739-8.111-2.581-12.018c-0.283-1.273,0.452-1.06,1.646,0.47c3.609,4.636,7.234,9.323,10.883,14.048
			c1.222,1.57,2.449,3.811,2.729,5.005c0.879,3.656,1.771,7.416,2.671,11.269C1098.4,562.299,1097.657,562.135,1096.429,560.638"/>
		<path fill="#D2E2EB" d="M1044.604,483.297c-3.596-4.276-7.212-8.519-10.882-12.704c-1.216-1.393-2.422-3.839-2.688-5.476
			c-0.789-4.844-1.561-9.569-2.313-14.173c-0.242-1.5,0.54-1.451,1.762,0.102c3.671,4.67,7.292,9.356,10.887,14.063
			c1.188,1.561,2.348,3.908,2.597,5.26c0.759,4.161,1.526,8.434,2.312,12.816C1046.539,484.666,1045.791,484.718,1044.604,483.297"
			/>
		<path fill="#C5D6DF" d="M1060.486,502.705c-3.538-4.416-7.084-8.799-10.668-13.135c-1.185-1.436-2.363-3.793-2.621-5.264
			c-0.786-4.36-1.558-8.607-2.31-12.743c-0.247-1.342,0.512-1.159,1.694,0.407c3.566,4.718,7.113,9.46,10.639,14.225
			c1.176,1.576,2.324,3.848,2.578,5.077c0.769,3.777,1.545,7.658,2.336,11.651C1062.407,504.27,1061.668,504.175,1060.486,502.705"
			/>
		<path fill="#C5D6DF" d="M1076.344,522.781c-3.568-4.57-7.124-9.098-10.676-13.59c-1.178-1.482-2.349-3.77-2.617-5.104
			c-0.789-3.979-1.567-7.835-2.341-11.597c-0.248-1.224,0.499-0.922,1.669,0.67c3.544,4.792,7.077,9.612,10.622,14.457
			c1.177,1.607,2.338,3.822,2.596,4.953c0.792,3.475,1.593,7.045,2.394,10.721C1078.267,524.52,1077.532,524.302,1076.344,522.781"
			/>
		<path fill="#D8E4EB" d="M1092.436,543.6c-3.642-4.743-7.272-9.444-10.871-14.101c-1.189-1.535-2.372-3.787-2.652-5.021
			c-0.813-3.656-1.617-7.212-2.395-10.667c-0.269-1.127,0.485-0.719,1.671,0.903c3.589,4.899,7.174,9.836,10.806,14.798
			c1.205,1.649,2.395,3.838,2.662,4.884c0.813,3.229,1.628,6.552,2.472,9.973C1094.406,545.525,1093.651,545.18,1092.436,543.6"/>
		<path fill="#D8E4EB" d="M1041.137,463.824c-3.595-4.729-7.215-9.455-10.883-14.153c-1.212-1.563-2.405-4.014-2.646-5.464
			c-0.717-4.297-1.406-8.471-2.09-12.525c-0.224-1.314,0.592-0.985,1.813,0.725c3.656,5.139,7.281,10.271,10.873,15.394
			c1.188,1.695,2.326,4.016,2.55,5.204c0.688,3.648,1.387,7.412,2.096,11.293C1043.093,465.601,1042.326,465.395,1041.137,463.824"
			/>
		<path fill="#C5D6DF" d="M1056.995,485.035c-3.532-4.785-7.086-9.55-10.646-14.304c-1.183-1.572-2.337-3.909-2.579-5.211
			c-0.709-3.851-1.408-7.594-2.101-11.223c-0.212-1.182,0.563-0.754,1.742,0.938c3.552,5.09,7.084,10.192,10.605,15.287
			c1.165,1.69,2.293,3.923,2.521,4.995c0.694,3.306,1.405,6.721,2.134,10.229C1058.914,486.939,1058.167,486.621,1056.995,485.035"
			/>
		<path fill="#D2E2EB" d="M1072.76,506.555c-3.54-4.871-7.077-9.707-10.619-14.527c-1.166-1.596-2.313-3.849-2.561-5.026
			c-0.725-3.5-1.438-6.896-2.135-10.185c-0.232-1.063,0.53-0.557,1.694,1.134c3.521,5.1,7.041,10.203,10.564,15.318
			c1.175,1.694,2.313,3.858,2.546,4.841c0.719,3.033,1.443,6.164,2.183,9.394C1074.691,508.592,1073.938,508.172,1072.76,506.555"/>
		<path fill="#D8E4EB" d="M1088.74,528.524c-3.62-4.973-7.208-9.924-10.796-14.845c-1.185-1.623-2.351-3.826-2.599-4.913
			c-0.743-3.213-1.462-6.328-2.186-9.342c-0.232-0.985,0.527-0.389,1.708,1.312c3.537,5.146,7.116,10.309,10.716,15.479
			c1.193,1.723,2.359,3.848,2.604,4.76c0.736,2.809,1.491,5.715,2.265,8.705C1090.72,530.696,1089.951,530.179,1088.74,528.524"/>
		<path fill="#D2E2EB" d="M988.927,400.524c-4.346-4.703-8.825-9.388-13.46-14.032c-1.545-1.553-3.04-4.59-3.307-6.779
			c-0.805-6.496-1.576-12.829-2.324-18.995c-0.24-2,0.854-2.105,2.417-0.243c4.679,5.551,9.198,11.08,13.587,16.577
			c1.446,1.802,2.783,4.653,3.016,6.389c0.706,5.33,1.44,10.812,2.188,16.439C991.298,401.78,990.358,402.072,988.927,400.524"/>
		<path fill="#C5D6DF" d="M1007.349,421.391c-3.979-4.7-8.043-9.39-12.22-14.046c-1.39-1.555-2.737-4.348-2.988-6.233
			c-0.749-5.586-1.479-11.018-2.187-16.304c-0.229-1.715,0.735-1.646,2.138,0.146c4.195,5.367,8.283,10.709,12.282,16.026
			c1.324,1.756,2.557,4.389,2.782,5.896c0.684,4.635,1.396,9.407,2.117,14.314C1009.519,422.85,1008.662,422.944,1007.349,421.391"
			/>
		<path fill="#D8E4EB" d="M1024.46,442.3c-3.739-4.703-7.532-9.399-11.4-14.079c-1.28-1.551-2.534-4.152-2.778-5.797
			c-0.728-4.873-1.43-9.608-2.116-14.219c-0.224-1.489,0.656-1.28,1.951,0.463c3.861,5.229,7.671,10.441,11.418,15.639
			c1.23,1.719,2.409,4.176,2.634,5.504c0.679,4.095,1.374,8.313,2.091,12.651C1026.489,443.926,1025.689,443.861,1024.46,442.3"/>
		<path fill="#C5D6DF" d="M509.855,732.883c-23.526-35.67-47.683-74.529-72.568-116.612c-8.586-14.588-32.319-14.566-53.918,1.551
			c-35.355,26.319-73.931,56.004-116.219,89.533c-22.136,17.459-45.256,36.163-69.683,55.896h312.399
			C514.188,751.337,514.479,739.926,509.855,732.883z"/>
		<path fill="#48AEE1" d="M701.338,726.88c6.354-9.962,8.759-23.949,5.412-31.759c-10.401-24.343-20.874-50.039-31.368-77.099
			c-3.604-9.229-13.161-9.796-21.582-0.692c-27.645,29.907-57.943,64.886-91.358,105.771
			c-10.107,12.326-14.928,29.016-12.359,40.146h128.533C686.369,750.58,693.946,738.455,701.338,726.88z"/>
		<path fill="#D2E2EB" d="M721.819,729.644c-3.255-7.306-10.897-5.546-17.117,4.438c-5.86,9.368-11.825,19.095-17.896,29.163h50.423
			C732.133,752.42,726.999,741.224,721.819,729.644z"/>
		<path fill="#006BB0" d="M885.912,747.234c-3.535-12.469-7.094-25.452-10.68-38.938c-1.208-4.575-4.227-4.624-6.741,0.049
			c-7.927,14.782-15.999,30.801-24.209,48.134c-0.884,1.858-1.583,3.99-2.078,6.174h41.964
			C886.242,757.973,887.043,751.198,885.912,747.234z"/>
		<path fill="#C5D6DF" d="M923.385,757.74c1.714-3.464,2.45-8.978,1.645-12.41c-2.467-10.62-4.953-21.604-7.467-32.955
			c-0.845-3.846-3.086-4.243-4.996-0.777c-5.994,10.892-12.013,22.619-18.095,35.192c-2.083,4.338-2.89,11.079-1.778,14.917
			c0.093,0.314,0.184,0.621,0.273,0.942h28.047C921.802,761.011,922.591,759.349,923.385,757.74z"/>
		<path fill="#C5D6DF" d="M928.646,760.701c-0.783-3.292-2.788-3.235-4.488,0.221c-0.278,0.566-0.557,1.156-0.834,1.729h5.794
			C928.961,762.002,928.803,761.357,928.646,760.701z"/>
		<path fill="#D8E4EB" d="M954.094,759.744c1.442-2.6,2.147-7.078,1.563-10.067c-1.806-9.226-3.619-18.734-5.462-28.527
			c-0.628-3.307-2.405-3.938-3.977-1.315c-4.891,8.194-9.781,16.99-14.666,26.394c-1.671,3.228-2.398,8.602-1.618,11.893
			c0.356,1.531,0.718,3.033,1.068,4.537h21.505C953.037,761.685,953.566,760.699,954.094,759.744z"/>
		<path fill="#006BB0" d="M1113.195,572.643c0.266,0.99,0.537,2.01,0.805,3.023v-3.146
			C1113.319,571.86,1112.974,571.85,1113.195,572.643z"/>
		<path fill="#48AEE1" d="M1113.548,582.543c-3.84-4.737-7.637-9.417-11.413-14.028c-1.234-1.52-1.979-1.665-1.671-0.339
			c0.937,4.083,1.896,8.267,2.854,12.544c0.323,1.439,1.589,3.771,2.853,5.214c2.59,2.99,5.206,6.031,7.832,9.095v-11.897
			C1113.849,582.926,1113.701,582.726,1113.548,582.543z"/>
		<path fill="#C5D6DF" d="M1106.479,587.302c-1.263-1.438-2.006-1.406-1.684,0.07c1.004,4.52,1.996,9.132,3.005,13.837
			c0.354,1.584,1.643,3.961,2.911,5.32c1.09,1.174,2.191,2.368,3.288,3.558v-14.101
			C1111.479,593.064,1108.968,590.162,1106.479,587.302z"/>
		<path fill="#48AEE1" d="M1111.033,608.048c-1.27-1.354-2.012-1.144-1.684,0.478c1.047,4.938,2.098,9.978,3.131,15.1
			c0.222,1.056,0.805,2.382,1.52,3.544v-15.935C1113.012,610.172,1112.02,609.094,1111.033,608.048z"/>
		<path fill="#D8E4EB" d="M1113.08,630.582c-0.342-1.75-1.656-4.175-2.925-5.403c-3.786-3.66-7.552-7.201-11.318-10.63
			c-1.226-1.111-1.948-0.521-1.614,1.32c1.012,5.62,2.036,11.331,3.051,17.108c0.346,1.929,1.627,4.323,2.877,5.347
			c3.602,2.978,7.216,6.094,10.849,9.321v-12.413C1113.697,633.679,1113.39,632.121,1113.08,630.582z"/>
		<path fill="#D2E2EB" d="M1103.468,640.162c-1.243-1.018-1.979-0.248-1.633,1.709c1.022,5.969,2.049,12.006,3.052,18.104
			c0.342,2.037,1.635,4.426,2.896,5.363c2.065,1.529,4.141,3.125,6.217,4.749v-20.941
			C1110.479,646.032,1106.966,643.028,1103.468,640.162z"/>
		<path fill="#D2E2EB" d="M1108.097,667.263c-1.262-0.925-2.008,0.002-1.672,2.062c1.013,6.246,2.019,12.544,3.006,18.894
			c0.322,2.111,1.627,4.496,2.907,5.351c0.559,0.372,1.108,0.771,1.662,1.149v-22.98
			C1112.028,670.205,1110.059,668.714,1108.097,667.263z"/>
		<path fill="#48AEE1" d="M1112.207,571.369c-0.305-1.13-1.574-3.369-2.842-5.021c-3.797-4.936-7.565-9.822-11.287-14.66
			c-1.23-1.596-1.991-1.926-1.702-0.738c0.879,3.649,1.778,7.394,2.685,11.229c0.298,1.293,1.548,3.572,2.781,5.102
			c3.779,4.621,7.563,9.313,11.408,14.067c0.277,0.345,0.525,0.614,0.749,0.834v-3.998
			C1113.398,575.878,1112.795,573.594,1112.207,571.369z"/>
	</g>
	<path opacity="0.5" fill="#D2E2EB" enable-background="new    " d="M265.673,291.156c-31.735-66.368-63.378-136.61-94.915-210.511
		C160.05,55.486,113.91,28.152,63.302,19.636C43.056,16.221,21.958,12.777,0,9.245V397.84c8.239-2.146,16.38-4.257,24.375-6.31
		c39.018-10.183,75.438-19.229,109.425-27.513c31.745-7.778,61.548-14.777,89.556-21.175
		C257.91,334.923,275.765,312.468,265.673,291.156z"/>
	<path opacity="0.5" fill="#C5D6DF" enable-background="new    " d="M397.257,546.577c-28.046-50.094-56.661-103.898-85.6-161.528
		c-10.051-19.771-43.465-29.969-77.011-21.249c-27.159,7.039-55.971,14.876-86.703,23.266
		c-32.809,9.078-67.899,18.992-105.485,29.927c-13.78,3.984-27.942,8.119-42.459,12.397v333.856h159.588
		c6.228-4.847,12.396-9.639,18.48-14.334c26.368-20.646,51.664-39.644,75.438-57.728c43.958-33.114,83.887-62.412,120.366-88.353
		C396.118,586.955,406.132,562.521,397.257,546.577z"/>
</g>
</svg>
