<?xml version="1.0" encoding="utf-8"?>
<!-- Generator: Adobe Illustrator 15.1.0, SVG Export Plug-In . SVG Version: 6.00 Build 0)  -->
<!DOCTYPE svg PUBLIC "-//W3C//DTD SVG 1.1//EN" "http://www.w3.org/Graphics/SVG/1.1/DTD/svg11.dtd" [
	<!ENTITY ns_extend "http://ns.adobe.com/Extensibility/1.0/">
	<!ENTITY ns_ai "http://ns.adobe.com/AdobeIllustrator/10.0/">
	<!ENTITY ns_graphs "http://ns.adobe.com/Graphs/1.0/">
	<!ENTITY ns_vars "http://ns.adobe.com/Variables/1.0/">
	<!ENTITY ns_imrep "http://ns.adobe.com/ImageReplacement/1.0/">
	<!ENTITY ns_sfw "http://ns.adobe.com/SaveForWeb/1.0/">
	<!ENTITY ns_custom "http://ns.adobe.com/GenericCustomNamespace/1.0/">
	<!ENTITY ns_adobe_xpath "http://ns.adobe.com/XPath/1.0/">
]>
<svg version="1.1" id="Layer_1" xmlns:x="&ns_extend;" xmlns:i="&ns_ai;" xmlns:graph="&ns_graphs;"
	 xmlns="http://www.w3.org/2000/svg" xmlns:xlink="http://www.w3.org/1999/xlink" x="0px" y="0px" width="579.101px" height="28px"
	 viewBox="-15.879 -3.856 579.101 28" enable-background="new -15.879 -3.856 579.101 28" xml:space="preserve">
<metadata><?xpacket begin="﻿" id="W5M0MpCehiHzreSzNTczkc9d"?>
<x:xmpmeta xmlns:x="adobe:ns:meta/" x:xmptk="Adobe XMP Core 5.0-c060 61.134777, 2010/02/12-17:32:00        ">
   <rdf:RDF xmlns:rdf="http://www.w3.org/1999/02/22-rdf-syntax-ns#">
      <rdf:Description rdf:about=""
            xmlns:dc="http://purl.org/dc/elements/1.1/">
         <dc:format>image/svg+xml</dc:format>
         <dc:title>
            <rdf:Alt>
               <rdf:li xml:lang="x-default">Print</rdf:li>
            </rdf:Alt>
         </dc:title>
      </rdf:Description>
      <rdf:Description rdf:about=""
            xmlns:xmp="http://ns.adobe.com/xap/1.0/"
            xmlns:xmpGImg="http://ns.adobe.com/xap/1.0/g/img/">
         <xmp:MetadataDate>2018-01-15T12:27:37+06:00</xmp:MetadataDate>
         <xmp:ModifyDate>2018-01-15T12:27:37+06:00</xmp:ModifyDate>
         <xmp:CreateDate>2018-01-15T12:27:36+06:00</xmp:CreateDate>
         <xmp:CreatorTool>Adobe Illustrator CS5.1</xmp:CreatorTool>
         <xmp:Thumbnails>
            <rdf:Alt>
               <rdf:li rdf:parseType="Resource">
                  <xmpGImg:width>256</xmpGImg:width>
                  <xmpGImg:height>12</xmpGImg:height>
                  <xmpGImg:format>JPEG</xmpGImg:format>
                  <xmpGImg:image>/9j/4AAQSkZJRgABAgEAhgCGAAD/7QAsUGhvdG9zaG9wIDMuMAA4QklNA+0AAAAAABAAhgAAAAEA&#xA;AQCGAAAAAQAB/+4ADkFkb2JlAGTAAAAAAf/bAIQABgQEBAUEBgUFBgkGBQYJCwgGBggLDAoKCwoK&#xA;DBAMDAwMDAwQDA4PEA8ODBMTFBQTExwbGxscHx8fHx8fHx8fHwEHBwcNDA0YEBAYGhURFRofHx8f&#xA;Hx8fHx8fHx8fHx8fHx8fHx8fHx8fHx8fHx8fHx8fHx8fHx8fHx8fHx8fHx8f/8AAEQgADAEAAwER&#xA;AAIRAQMRAf/EAaIAAAAHAQEBAQEAAAAAAAAAAAQFAwIGAQAHCAkKCwEAAgIDAQEBAQEAAAAAAAAA&#xA;AQACAwQFBgcICQoLEAACAQMDAgQCBgcDBAIGAnMBAgMRBAAFIRIxQVEGE2EicYEUMpGhBxWxQiPB&#xA;UtHhMxZi8CRygvElQzRTkqKyY3PCNUQnk6OzNhdUZHTD0uIIJoMJChgZhJRFRqS0VtNVKBry4/PE&#xA;1OT0ZXWFlaW1xdXl9WZ2hpamtsbW5vY3R1dnd4eXp7fH1+f3OEhYaHiImKi4yNjo+Ck5SVlpeYmZ&#xA;qbnJ2en5KjpKWmp6ipqqusra6voRAAICAQIDBQUEBQYECAMDbQEAAhEDBCESMUEFURNhIgZxgZEy&#xA;obHwFMHR4SNCFVJicvEzJDRDghaSUyWiY7LCB3PSNeJEgxdUkwgJChgZJjZFGidkdFU38qOzwygp&#xA;0+PzhJSktMTU5PRldYWVpbXF1eX1RlZmdoaWprbG1ub2R1dnd4eXp7fH1+f3OEhYaHiImKi4yNjo&#xA;+DlJWWl5iZmpucnZ6fkqOkpaanqKmqq6ytrq+v/aAAwDAQACEQMRAD8AlnkBLH1vIq6fpM2kaxNI&#xA;8t3rc6hIb6BI3M0KFGf1WfkCOYWlNsw8demhReg1ZNZOKXFH+b/NPQ+TMNIZT+RuuAEErba6G36H&#xA;17o0P35YP7s/Fw8n+NR98Puixgy6xpnmay1/TUeWTRfLmlzahZDYzWTB1uEAP7abSL/q5DcGx0Ac&#xA;moygYS/iySo9x6fqQ+txwa7Y6ilndFINX84ad9WvIuqpdW0ZSRem4Dg/PBLce+QZYicZFj6cUtvc&#xA;WUaP5ju9W82+U7PVVEXmDR5NSs9XhHQyLbLwmXp8EyfGpyyMrkL5i3FyYRDHMx+iXCR8+XwQH5Va&#xA;DpieXdL1NfKjwXgs5WHmIyW5VmaN1LBFmM3xg8f7vI4Yiga+LZrssuMx49r+nf8AVX2pN+Xq2Yuf&#xA;I6adpc+j6rO0kt7rU4CQ38EcbmaFODv6rNyDDmBxpUZHH/DQot+rusnFISj0H809/k9A802qeYPz&#xA;B03yvqMjjRI9Om1OezR2RbqVZlhSOXiQWRAxfj9+XTHFIA8qddgl4eE5I/VxVfdta3zP5A0jStGO&#xA;q+VrGHT9W0eb9KWojqiSGJaTQt1os0NUNKb0xnjAFjmE4NXKcuHIbjL0/qPwLEfMVtNqXkO/85X0&#xA;JlvPMV3Y/VrSq1j05bpBBbVJC1kU8n3oS2+VSFx4j1cvDLhyjEOUBL/TVuULqiiy0nz/AKaNNby7&#xA;C+nW9zbaAzLIpXmUe7Roy8KhjRCqN1G+A7CQqtuTOHqlilfH6j6v0d6aeb9D03S/y680TWXlV/LU&#xA;j28KNK0tu5lUzpVR6E01Ke9MlOIETtTVp8spZoAz49/Pu8wEE8dgk/nGHR9Jm8tWUPli6N5pN0oj&#xA;kuJHR/SuEiRpI+KKrKXDVJNCMG29CvSzBNYzKXGfEFEdPJmXnv8A8kzff9suL/iKZbk/u/g4Wl/x&#xA;kf1mIzXuqaL+YWueZ7XlLYaVb6VHrVolSXsrm2POYDu0DRK49uXbKrIkT3U5gjGeGOM85GVe8H9K&#xA;2/1O4i05dR0m3/Sc587zy2MEbCkzPaS+nRunE1Br4Yk7WP5yYQBlwyPD+5F/MMy/LfS9J1Xyvcat&#xA;eP8ApLUvMIddelmXiwYgxvZlOqJCKoF+nvluIAi+/m4WsnKGQRG0YfT+v4pN5W8g+TV/MjzRANJg&#xA;EWljSptPShpDJJHI7Mm/UsgORhjjxnblTdn1WXwIHiPq4rYh5N+p+l5TNppU+n65c6vN6vmaUCO3&#xA;uIkuJWktw6MzSs8S+mEdV3GxyqHTbe+bmai/XcgYiP09RsN/LvTDz35vsIvzDk1o3pSTypc2lrbW&#xA;qq5E0UvIaj8QBUEJKq7n9nJZJjivu/Ba9LpycPDX94Cf+JR/5kMr6r51dCGVvLdqVYGoINy9CDhy&#xA;85e5r0f04/8Ahh+5Z+lL6zs9H8navIZL/StZ0ebTrl+t1p0lygik/wBaI/u3+jG6qJ6EJ4ATLLHl&#xA;KE78pV+nmo69pc+qafLYW1w1pcz+ebgW10vWOVbWVo3/ANi4BwSFiv6TLFMQNkWPBH3hFt53vbrU&#xA;4tTkhEHmHQ9C1qPUbNhsl5a+g3QdUegZfY4fE3vqAWH5YCPD/BKcKPkbRI0XyTo/lLTfM/mDTLrz&#xA;BeXMEV9fayKzyK7KsnIs0iemgL0RV7DDwxEQSLY+LlnkOOBEADQHJk35l3Fw8WhaNHcvZ22t6nFZ&#xA;308TFJDBweRokcbqZCgWuWZeg7y4uiA9UqsxjYSnz95I8p6D5B8w3ej6ZFZXLWDQPLHy5NGXRiGJ&#xA;J5bqNzvkcmOIiaDdpdTkyZoiRscSS61oOmWH5deYri18qNoE0mmhWu2kt39YFkJUCGaZhuK/EBkJ&#xA;RAidq2bseWUs0QZ8fq8/0hu41C7t5NH8lay5l1DR9dsPqk79bvTn9RYZt+rKP3cnviTyiehUQB4s&#xA;seUoS+Euv6wiU/LnyOfzVl0r9DW/6OGhR3QtqHh6xvHjL9evEUw+FHjqujH85l/L8XEb46+xb5O0&#xA;HTLnzFql9N5Ua+uY/MN8ya96luFiMd2xVuDzLL+7Irsh9q4wiLJrquoyyEABOhwR9O/d7qYrbrZF&#xA;pGt9KntfMFx5mkhtPNjgLbRH65X02kVmd6opj4MnHfrlfw34ublm+sgYDH9HXkzu0/wf/g/yL6H6&#xA;R+q/pC1/QVPQ+terST/ej9j0uHL1OHbpvlw4eGPNwJeJ4mS+G+E8XOvh59yQap/hv1dY9D9Pf4J+&#xA;uv8Apv6p6H6P9fmPrHGv+lejz/vPT2602yBrfnwuRDj9N8Hi16bvirp5X3Wz3Tv8Of4+vvqvrfpD&#xA;9E23P+7+pfVPUf0vTp8fKta1+GlMuFcXwdfPj8EXy4j77YPoX/KsvqQ/RP6R/R/+LbT6vw9D0/r1&#xA;R6Pp13+qdOvx06ZTHg6X9TnZfHv1cN+Ee/l1/wA77GT6j/gv/lb2k1+sf4r+qTf3Hp/V/S9N6fWa&#xA;/Fz48uHH6dqZYeHjHe4sPF/LS5eHfx+CT+Q/T/Run/o3/E/+HPQf6v8AW/0V9V9Hg32vT/f/ACp3&#xA;9sjj5bcVfBv1X1Hi8PjvpxX+pF2P+Dv8K+Q/q/6R+r/X4P0F/cfWefGSv1n9j0uHL1OG9KU3wjh4&#xA;YsJeJ4mS+G6PFzr4efcmH5mfoD1tJ9X6/wD4m9ST9B/ofj9d+yPV+3+79GlOfPamHLW3f5Nei46l&#xA;9PB/Fxcv7Vby19f/AMO6x+nf0vXg/rfpL6p6npeka/V/q37vp4/tYY3Ru2OauOPBw/C/ttKNc/wz&#xA;/wAqc03h+kf0R6dj+j/S9D67y9RPq/Pn+5rz48sjKvDHc3YuP8yfp4vVfOvPzSt/8NfobzX/AIl/&#xA;Tn6W/R8P6U+vfVfrn1Lm3D6n6f8Ao/p+pWv+V1yO1G7tt9fFDg4OHi2q6vz6orXfT/wlrv8Aij/E&#xA;/wCh/qyfWPrf6K5f38dPQ+r/ALdafb24170wy+k3xV8GOL+8j4fh8V9OLu62m/nn/C/6bvP0h9e+&#xA;uf4c1H659T9Hh+jtvU5epv6nL+67V+1kslXv3Fp0vicIqq8SNX/O/V3pFc/V/wDCOo/pj/FH+Hf0&#xA;d8X1r9E8fRqnD0vR+P1KfZ5bUrXIH6d+Kq8m8X4g4fD4+LpxfpZT5f8A8Mf4m80+l9Y9f6ppv6W+&#xA;t+l9W9H6vJ6Pp03/ALvl6vPbwyyNWfg4uXxOCHLnKq58/wAUxfyh/wAq9/Qej/of9Jfo7/Ezfo71&#xA;PRr9c+rSU5d/q3pV4/t9K5XDhoVf1OVqPG45cXDfh7+6/v8AsZb5W/QP+L/Mv6G+tV9WP9Lf3f6P&#xA;+u8fj9L/AHZ63Gnq0+HpXfLYVxGnEz8fhw4q8u+v1dyroP6F/wAd+avqv1n9Kenp36S9X0/q9PSk&#xA;9D0OPx148ufLvSmMa4j37McvF4ULrh9Vd/S7YvZ/4M/5V55d+r/pL9H/AKZT9Ef3H13679elpy/3&#xA;Vw9Tn/sPfKxw8I583Kl4vjTvhvg351XCPj+1NdC/wh/yr/XOX1r9F+pqf6c+uen9b9Xm/wBZ5+n8&#xA;HL+Snbj3yUeHhPxasvieNHlxenhrl5Mau/8AA/6J1L63+meP+GbH61z+q+t9Q5n0aU+H6x/PX4fp&#xA;yB4aPP6XJj4vEK4P7w9/Pr8E+89/4H/Snkv9LfWf0p9ftv0L9W9P1K846fWOe3o8+HOm9fs98lk4&#xA;bjfNo0vi8OThrh4Td/o81sf+EvrMNPr/AD/xdLwr6NP0l6EnKv8Ay7cOVP260x9P+y+1T4lfw/3X&#xA;n9N/f9irL/gT/lbFx/ef4h/RL/pKnp/U/q9Vr69fi9Xhx9uHXD6ePzpA8X8uP5nFt335eTCb79Bf&#xA;4fuvqP8Aij/lX3xet6P1T6r6XP8A49/rP+kejy/jlJqtuLhc6PHxi/D8b438a2t6d+Y/+GP8MS/4&#xA;i9X6p6sf1b6ty+tfWuX7n6tx+L1eX2fx2rmRlqt3V6PxPE9HPz5V1vyYRL9Z/wAO67/ir/E36G/R&#xA;x5fW/wBH19P1E+x6e/r/AOv25V3plXQ8XFVeTnCuOPh+HxcXTi/FIm99P/Cusfp//E/6C/R59X65&#xA;+iqcOcdPQ+r/ABerTpz+Gla70wnkb4q+DGP95Hg8Pi4unF9t9E68/f4L/wAV+Uf0t6/6d+vL+ifq&#xA;vp8vtD/ejn/unnTpvXp3yWThsXzaNL4vhz4a4a3v9Hmma/oX/lZ0lPrP6b/QkfL+7+q/Vfrb0p/u&#xA;z1fUr/k8ffJbcfnTV6vA6cPH8br7mMaL/wAdvUP0L/ib6l+mLr656X6K+pfWfrJ+sf3n+kelyr/l&#xA;cffK489r5+TlZPpHF4d8Ir6rqtvK3XH+DP8AlXms/wDHS/Rv6Yk9Th6H1z699eT/AHnr+74+tTjy&#xA;349cTw8J581Hi+NH6eLh86rh6/B//9k=</xmpGImg:image>
               </rdf:li>
            </rdf:Alt>
         </xmp:Thumbnails>
      </rdf:Description>
      <rdf:Description rdf:about=""
            xmlns:xmpMM="http://ns.adobe.com/xap/1.0/mm/"
            xmlns:stRef="http://ns.adobe.com/xap/1.0/sType/ResourceRef#"
            xmlns:stEvt="http://ns.adobe.com/xap/1.0/sType/ResourceEvent#">
         <xmpMM:InstanceID>xmp.iid:BA901FACBCF9E711AF6ED3D0F2551EA5</xmpMM:InstanceID>
         <xmpMM:DocumentID>xmp.did:BA901FACBCF9E711AF6ED3D0F2551EA5</xmpMM:DocumentID>
         <xmpMM:OriginalDocumentID>uuid:5D20892493BFDB11914A8590D31508C8</xmpMM:OriginalDocumentID>
         <xmpMM:RenditionClass>proof:pdf</xmpMM:RenditionClass>
         <xmpMM:DerivedFrom rdf:parseType="Resource">
            <stRef:instanceID>uuid:29e17876-faee-8948-9286-1741a44a591b</stRef:instanceID>
            <stRef:documentID>xmp.did:F77F11740720681188C6A5613A2C864B</stRef:documentID>
            <stRef:originalDocumentID>uuid:5D20892493BFDB11914A8590D31508C8</stRef:originalDocumentID>
            <stRef:renditionClass>proof:pdf</stRef:renditionClass>
         </xmpMM:DerivedFrom>
         <xmpMM:History>
            <rdf:Seq>
               <rdf:li rdf:parseType="Resource">
                  <stEvt:action>saved</stEvt:action>
                  <stEvt:instanceID>xmp.iid:BA901FACBCF9E711AF6ED3D0F2551EA5</stEvt:instanceID>
                  <stEvt:when>2018-01-15T12:27:37+06:00</stEvt:when>
                  <stEvt:softwareAgent>Adobe Illustrator CS5.1</stEvt:softwareAgent>
                  <stEvt:changed>/</stEvt:changed>
               </rdf:li>
            </rdf:Seq>
         </xmpMM:History>
      </rdf:Description>
      <rdf:Description rdf:about=""
            xmlns:illustrator="http://ns.adobe.com/illustrator/1.0/">
         <illustrator:StartupProfile>Print</illustrator:StartupProfile>
      </rdf:Description>
      <rdf:Description rdf:about=""
            xmlns:xmpTPg="http://ns.adobe.com/xap/1.0/t/pg/"
            xmlns:stDim="http://ns.adobe.com/xap/1.0/sType/Dimensions#"
            xmlns:xmpG="http://ns.adobe.com/xap/1.0/g/">
         <xmpTPg:HasVisibleOverprint>False</xmpTPg:HasVisibleOverprint>
         <xmpTPg:HasVisibleTransparency>False</xmpTPg:HasVisibleTransparency>
         <xmpTPg:NPages>1</xmpTPg:NPages>
         <xmpTPg:MaxPageSize rdf:parseType="Resource">
            <stDim:w>579.100586</stDim:w>
            <stDim:h>28.000000</stDim:h>
            <stDim:unit>Pixels</stDim:unit>
         </xmpTPg:MaxPageSize>
         <xmpTPg:PlateNames>
            <rdf:Seq>
               <rdf:li>Cyan</rdf:li>
               <rdf:li>Magenta</rdf:li>
               <rdf:li>Yellow</rdf:li>
               <rdf:li>Black</rdf:li>
            </rdf:Seq>
         </xmpTPg:PlateNames>
         <xmpTPg:SwatchGroups>
            <rdf:Seq>
               <rdf:li rdf:parseType="Resource">
                  <xmpG:groupName>Default Swatch Group</xmpG:groupName>
                  <xmpG:groupType>0</xmpG:groupType>
               </rdf:li>
            </rdf:Seq>
         </xmpTPg:SwatchGroups>
      </rdf:Description>
      <rdf:Description rdf:about=""
            xmlns:pdf="http://ns.adobe.com/pdf/1.3/">
         <pdf:Producer>Adobe PDF library 9.90</pdf:Producer>
      </rdf:Description>
   </rdf:RDF>
</x:xmpmeta>
                                                                                                    
                                                                                                    
                                                                                                    
                                                                                                    
                                                                                                    
                                                                                                    
                                                                                                    
                                                                                                    
                                                                                                    
                                                                                                    
                                                                                                    
                                                                                                    
                                                                                                    
                                                                                                    
                                                                                                    
                                                                                                    
                                                                                                    
                                                                                                    
                                                                                                    
                                                                                                    
                           
<?xpacket end="w"?>
	</metadata>
<g>
	<g>
		<path fill="#942923" d="M-13.829-1.624c1.583-0.323,3.886-0.539,6.009-0.539c3.347,0,5.541,0.647,7.052,2.015
			C0.42,0.896,1.14,2.55,1.14,4.458c0,3.167-2.051,5.29-4.57,6.152v0.109c1.835,0.647,2.951,2.376,3.563,4.894
			c0.792,3.383,1.368,5.723,1.835,6.657h-3.239c-0.395-0.685-0.935-2.771-1.583-5.793c-0.72-3.347-2.051-4.606-4.894-4.715h-2.949
			v10.508h-3.131V-1.624z M-10.698,9.388h3.203c3.347,0,5.469-1.836,5.469-4.606c0-3.131-2.267-4.498-5.577-4.498
			c-1.511,0-2.555,0.144-3.095,0.287V9.388z"/>
		<path fill="#942923" d="M8.59-1.983v14.395c0,5.398,2.411,7.7,5.649,7.7c3.563,0,5.9-2.376,5.9-7.7V-1.983h3.167v14.178
			c0,7.448-3.923,10.473-9.176,10.473c-4.965,0-8.708-2.807-8.708-10.363V-1.983H8.59z"/>
		<path fill="#942923" d="M28.744,22.27V-1.983h3.454l7.738,12.271c1.763,2.844,3.202,5.361,4.318,7.881l0.108-0.036
			c-0.288-3.239-0.359-6.189-0.359-9.932V-1.983h2.95V22.27h-3.167l-7.7-12.306c-1.691-2.7-3.311-5.47-4.499-8.097l-0.108,0.036
			c0.18,3.059,0.216,5.974,0.216,10.004v10.363L28.744,22.27L28.744,22.27z"/>
		<path fill="#942923" d="M52.423,22.27V-1.983h3.455l7.736,12.271c1.764,2.844,3.203,5.361,4.319,7.881l0.108-0.036
			c-0.288-3.239-0.36-6.189-0.36-9.932V-1.983h2.951V22.27h-3.167L59.765,9.964c-1.691-2.7-3.31-5.47-4.499-8.097l-0.108,0.036
			c0.18,3.059,0.216,5.974,0.216,10.004v10.363L52.423,22.27L52.423,22.27z"/>
		<path fill="#942923" d="M88.625,10.899h-9.392v8.743H89.74v2.627H76.067V-1.983h13.134v2.626h-9.967v7.664h9.392L88.625,10.899
			L88.625,10.899z"/>
		<path fill="#942923" d="M93.808-1.624c1.583-0.323,3.885-0.539,6.009-0.539c3.347,0,5.541,0.647,7.053,2.015
			c1.187,1.044,1.907,2.698,1.907,4.606c0,3.167-2.051,5.29-4.57,6.152v0.109c1.835,0.647,2.951,2.376,3.563,4.894
			c0.792,3.383,1.367,5.723,1.835,6.657h-3.239c-0.396-0.685-0.936-2.771-1.583-5.793c-0.72-3.347-2.051-4.606-4.895-4.715h-2.951
			v10.508h-3.131V-1.624H93.808z M96.939,9.388h3.203c3.347,0,5.469-1.836,5.469-4.606c0-3.131-2.267-4.498-5.577-4.498
			c-1.512,0-2.555,0.144-3.095,0.287V9.388z"/>
		<path fill="#942923" d="M137.711,21.514c-1.115,0.576-3.455,1.152-6.405,1.152c-6.836,0-11.947-4.318-11.947-12.307
			c0-7.629,5.145-12.739,12.667-12.739c2.986,0,4.929,0.648,5.757,1.08l-0.792,2.556c-1.152-0.576-2.843-1.008-4.858-1.008
			c-5.685,0-9.464,3.635-9.464,10.003c0,5.975,3.418,9.754,9.284,9.754c1.943,0,3.887-0.397,5.146-1.009L137.711,21.514z"/>
		<path fill="#942923" d="M147.067,22.27V11.978l-7.7-13.961h3.598l3.418,6.692c0.899,1.836,1.655,3.312,2.411,5.002h0.072
			c0.647-1.583,1.512-3.166,2.447-5.002l3.491-6.692h3.527l-8.096,13.926V22.27H147.067z"/>
		<path fill="#942923" d="M161.14-1.624c1.368-0.323,3.562-0.539,5.721-0.539c3.131,0,5.145,0.539,6.621,1.763
			c1.259,0.936,2.051,2.375,2.051,4.283c0,2.375-1.583,4.425-4.103,5.324v0.108c2.303,0.54,5.002,2.447,5.002,6.046
			c0,2.088-0.828,3.672-2.087,4.858c-1.656,1.546-4.39,2.268-8.348,2.268c-2.159,0-3.814-0.145-4.857-0.287V-1.624z M164.27,8.308
			h2.843c3.274,0,5.218-1.763,5.218-4.102c0-2.807-2.123-3.958-5.291-3.958c-1.439,0-2.267,0.107-2.771,0.216V8.308z M164.27,19.896
			c0.647,0.109,1.511,0.145,2.627,0.145c3.239,0,6.225-1.187,6.225-4.714c0-3.275-2.843-4.679-6.262-4.679h-2.591v9.248H164.27z"/>
		<path fill="#942923" d="M193.167,10.899h-9.392v8.743h10.508v2.627h-13.673V-1.983h13.134v2.626h-9.968v7.664h9.392
			L193.167,10.899L193.167,10.899z"/>
		<path fill="#942923" d="M198.35-1.624c1.583-0.323,3.885-0.539,6.009-0.539c3.346,0,5.541,0.647,7.052,2.015
			c1.188,1.044,1.908,2.698,1.908,4.606c0,3.167-2.051,5.29-4.57,6.152v0.109c1.835,0.647,2.951,2.376,3.563,4.894
			c0.792,3.383,1.368,5.723,1.835,6.657h-3.238c-0.396-0.685-0.936-2.771-1.584-5.793c-0.72-3.347-2.051-4.606-4.894-4.715h-2.951
			v10.508h-3.131V-1.624H198.35z M201.48,9.388h3.203c3.347,0,5.469-1.836,5.469-4.606c0-3.131-2.267-4.498-5.577-4.498
			c-1.511,0-2.555,0.144-3.095,0.287V9.388L201.48,9.388z"/>
		<path fill="#942923" d="M217.675-1.983h3.167v21.626h10.364v2.627h-13.531V-1.983z"/>
		<path fill="#942923" d="M237.827-1.983V22.27h-3.167V-1.983H237.827z"/>
		<path fill="#942923" d="M243.297,22.27V-1.983h3.455l7.737,12.271c1.764,2.844,3.202,5.361,4.318,7.881l0.109-0.036
			c-0.288-3.239-0.36-6.189-0.36-9.932V-1.983h2.95V22.27h-3.166L250.64,9.964c-1.691-2.7-3.311-5.47-4.499-8.097l-0.108,0.036
			c0.18,3.059,0.216,5.974,0.216,10.004v10.363L243.297,22.27L243.297,22.27z"/>
		<path fill="#942923" d="M266.978-1.983h3.13V9.711h0.109c0.648-0.936,1.296-1.799,1.908-2.591l7.412-9.104h3.887l-8.781,10.291
			l9.463,13.962H280.4l-7.953-11.91l-2.339,2.664v9.246h-3.13V-1.983L266.978-1.983z"/>
		<path fill="#942923" d="M297.244,0.68h-7.377v-2.663h17.957V0.68h-7.414v21.59h-3.166V0.68z"/>
		<path fill="#942923" d="M310.523-1.624c1.582-0.323,3.885-0.539,6.01-0.539c3.346,0,5.541,0.647,7.053,2.015
			c1.186,1.044,1.906,2.698,1.906,4.606c0,3.167-2.051,5.29-4.568,6.152v0.109c1.834,0.647,2.949,2.376,3.563,4.894
			c0.791,3.383,1.365,5.723,1.834,6.657h-3.24c-0.395-0.685-0.934-2.771-1.582-5.793c-0.721-3.347-2.051-4.606-4.895-4.715h-2.951
			v10.508h-3.129V-1.624L310.523-1.624z M313.652,9.388h3.203c3.348,0,5.471-1.836,5.471-4.606c0-3.131-2.268-4.498-5.58-4.498
			c-1.51,0-2.553,0.144-3.094,0.287V9.388L313.652,9.388z"/>
		<path fill="#942923" d="M333.986,14.641l-2.52,7.629h-3.238l8.24-24.253h3.777l8.275,24.253h-3.346l-2.59-7.629H333.986z
			 M341.937,12.194l-2.41-6.98c-0.504-1.583-0.863-3.023-1.223-4.426h-0.109c-0.324,1.402-0.719,2.913-1.186,4.389l-2.375,7.018
			H341.937L341.937,12.194z"/>
		<path fill="#942923" d="M355.218-1.983V22.27h-3.168V-1.983H355.218z"/>
		<path fill="#942923" d="M360.689,22.27V-1.983h3.455l7.736,12.271c1.762,2.844,3.203,5.361,4.318,7.881l0.107-0.036
			c-0.287-3.239-0.359-6.189-0.359-9.932V-1.983h2.949V22.27h-3.166l-7.699-12.306c-1.693-2.7-3.311-5.47-4.498-8.097l-0.107,0.036
			c0.18,3.059,0.215,5.974,0.215,10.004v10.363L360.689,22.27L360.689,22.27z"/>
		<path fill="#942923" d="M387.5-1.983V22.27h-3.168V-1.983H387.5z"/>
		<path fill="#942923" d="M392.968,22.27V-1.983h3.455l7.736,12.271c1.766,2.844,3.203,5.361,4.32,7.881l0.107-0.036
			c-0.287-3.239-0.359-6.189-0.359-9.932V-1.983h2.949V22.27h-3.166l-7.699-12.306c-1.693-2.7-3.311-5.47-4.498-8.097l-0.107,0.036
			c0.18,3.059,0.215,5.974,0.215,10.004v10.363L392.968,22.27L392.968,22.27z"/>
		<path fill="#942923" d="M435.144,21.191c-1.404,0.539-4.211,1.331-7.486,1.331c-3.668,0-6.691-0.937-9.064-3.202
			c-2.088-2.016-3.385-5.254-3.385-9.032c0-7.232,5.004-12.522,13.137-12.522c2.805,0,5.037,0.611,6.08,1.115l-0.793,2.556
			c-1.293-0.612-2.914-1.044-5.359-1.044c-5.9,0-9.752,3.671-9.752,9.752c0,6.153,3.67,9.789,9.355,9.789
			c2.053,0,3.455-0.289,4.176-0.648v-7.231h-4.896V9.533h7.988V21.191L435.144,21.191z"/>
		<path fill="#942923" d="M464.437,21.514c-1.115,0.576-3.453,1.152-6.404,1.152c-6.836,0-11.945-4.318-11.945-12.307
			c0-7.629,5.145-12.739,12.664-12.739c2.986,0,4.93,0.648,5.756,1.08l-0.791,2.556c-1.15-0.576-2.842-1.008-4.855-1.008
			c-5.688,0-9.465,3.635-9.465,10.003c0,5.975,3.418,9.754,9.285,9.754c1.943,0,3.885-0.397,5.145-1.009L464.437,21.514z"/>
		<path fill="#942923" d="M480.921,10.899h-9.393v8.743h10.508v2.627h-13.676V-1.983h13.135v2.626h-9.967v7.664h9.393V10.899z"/>
		<path fill="#942923" d="M486.103,22.27V-1.983h3.455l7.736,12.271c1.762,2.844,3.203,5.361,4.318,7.881l0.109-0.036
			c-0.287-3.239-0.359-6.189-0.359-9.932V-1.983h2.949V22.27h-3.166l-7.699-12.306c-1.693-2.7-3.313-5.47-4.498-8.097l-0.107,0.036
			c0.18,3.059,0.215,5.974,0.215,10.004v10.363L486.103,22.27L486.103,22.27z"/>
		<path fill="#942923" d="M514.388,0.68h-7.377v-2.663h17.957V0.68h-7.412v21.59h-3.168V0.68z"/>
		<path fill="#942923" d="M540.191,10.899h-9.393v8.743h10.508v2.627h-13.672V-1.983h13.133v2.626h-9.969v7.664h9.393V10.899
			L540.191,10.899z"/>
		<path fill="#942923" d="M545.375-1.624c1.582-0.323,3.885-0.539,6.008-0.539c3.348,0,5.543,0.647,7.055,2.015
			c1.186,1.044,1.908,2.698,1.908,4.606c0,3.167-2.051,5.29-4.572,6.152v0.109c1.836,0.647,2.951,2.376,3.563,4.894
			c0.793,3.383,1.369,5.723,1.836,6.657h-3.24c-0.396-0.685-0.936-2.771-1.582-5.793c-0.721-3.347-2.051-4.606-4.895-4.715h-2.951
			v10.508h-3.129V-1.624L545.375-1.624z M548.505,9.388h3.201c3.346,0,5.469-1.836,5.469-4.606c0-3.131-2.266-4.498-5.578-4.498
			c-1.51,0-2.553,0.144-3.094,0.287v8.817H548.505z"/>
	</g>
</g>
</svg>
